<?xml version="1.0" encoding="utf-8" standalone="no"?>
<!DOCTYPE svg PUBLIC "-//W3C//DTD SVG 1.1//EN"
  "http://www.w3.org/Graphics/SVG/1.1/DTD/svg11.dtd">
<svg xmlns:xlink="http://www.w3.org/1999/xlink" width="432pt" height="288pt" viewBox="0 0 432 288" xmlns="http://www.w3.org/2000/svg" version="1.1">
 <metadata>
  <rdf:RDF xmlns:dc="http://purl.org/dc/elements/1.1/" xmlns:cc="http://creativecommons.org/ns#" xmlns:rdf="http://www.w3.org/1999/02/22-rdf-syntax-ns#">
   <cc:Work>
    <dc:type rdf:resource="http://purl.org/dc/dcmitype/StillImage"/>
    <dc:date>2025-09-05T13:03:08.981796</dc:date>
    <dc:format>image/svg+xml</dc:format>
    <dc:creator>
     <cc:Agent>
      <dc:title>Matplotlib v3.10.1, https://matplotlib.org/</dc:title>
     </cc:Agent>
    </dc:creator>
   </cc:Work>
  </rdf:RDF>
 </metadata>
 <defs>
  <style type="text/css">*{stroke-linejoin: round; stroke-linecap: butt}</style>
 </defs>
 <g id="figure_1">
  <g id="patch_1">
   <path d="M 0 288 
L 432 288 
L 432 0 
L 0 0 
z
" style="fill: #ffffff"/>
  </g>
  <g id="axes_1">
   <g id="patch_2">
    <path d="M 54 256.32 
L 388.8 256.32 
L 388.8 34.56 
L 54 34.56 
z
" style="fill: #ffffff"/>
   </g>
   <g id="matplotlib.axis_1">
    <g id="xtick_1">
     <g id="line2d_1">
      <defs>
       <path id="m3e1352fc8e" d="M 0 0 
L 0 4.8 
" style="stroke: #262626"/>
      </defs>
      <g>
       <use xlink:href="#m3e1352fc8e" x="69.218182" y="256.32" style="fill: #262626; stroke: #262626"/>
      </g>
     </g>
     <g id="text_1">
      <!-- 0 -->
      <g style="fill: #262626" transform="translate(65.792644 273.438425) scale(0.1232 -0.1232)">
       <defs>
        <path id="ArialMT-30" d="M 266 2259 
Q 266 3072 433 3567 
Q 600 4063 929 4331 
Q 1259 4600 1759 4600 
Q 2128 4600 2406 4451 
Q 2684 4303 2865 4023 
Q 3047 3744 3150 3342 
Q 3253 2941 3253 2259 
Q 3253 1453 3087 958 
Q 2922 463 2592 192 
Q 2263 -78 1759 -78 
Q 1097 -78 719 397 
Q 266 969 266 2259 
z
M 844 2259 
Q 844 1131 1108 757 
Q 1372 384 1759 384 
Q 2147 384 2411 759 
Q 2675 1134 2675 2259 
Q 2675 3391 2411 3762 
Q 2147 4134 1753 4134 
Q 1366 4134 1134 3806 
Q 844 3388 844 2259 
z
" transform="scale(0.015625)"/>
       </defs>
       <use xlink:href="#ArialMT-30"/>
      </g>
     </g>
    </g>
    <g id="xtick_2">
     <g id="line2d_2">
      <g>
       <use xlink:href="#m3e1352fc8e" x="130.090909" y="256.32" style="fill: #262626; stroke: #262626"/>
      </g>
     </g>
     <g id="text_2">
      <!-- 20 -->
      <g style="fill: #262626" transform="translate(123.239834 273.438425) scale(0.1232 -0.1232)">
       <defs>
        <path id="ArialMT-32" d="M 3222 541 
L 3222 0 
L 194 0 
Q 188 203 259 391 
Q 375 700 629 1000 
Q 884 1300 1366 1694 
Q 2113 2306 2375 2664 
Q 2638 3022 2638 3341 
Q 2638 3675 2398 3904 
Q 2159 4134 1775 4134 
Q 1369 4134 1125 3890 
Q 881 3647 878 3216 
L 300 3275 
Q 359 3922 746 4261 
Q 1134 4600 1788 4600 
Q 2447 4600 2831 4234 
Q 3216 3869 3216 3328 
Q 3216 3053 3103 2787 
Q 2991 2522 2730 2228 
Q 2469 1934 1863 1422 
Q 1356 997 1212 845 
Q 1069 694 975 541 
L 3222 541 
z
" transform="scale(0.015625)"/>
       </defs>
       <use xlink:href="#ArialMT-32"/>
       <use xlink:href="#ArialMT-30" transform="translate(55.615234 0)"/>
      </g>
     </g>
    </g>
    <g id="xtick_3">
     <g id="line2d_3">
      <g>
       <use xlink:href="#m3e1352fc8e" x="190.963636" y="256.32" style="fill: #262626; stroke: #262626"/>
      </g>
     </g>
     <g id="text_3">
      <!-- 40 -->
      <g style="fill: #262626" transform="translate(184.112561 273.438425) scale(0.1232 -0.1232)">
       <defs>
        <path id="ArialMT-34" d="M 2069 0 
L 2069 1097 
L 81 1097 
L 81 1613 
L 2172 4581 
L 2631 4581 
L 2631 1613 
L 3250 1613 
L 3250 1097 
L 2631 1097 
L 2631 0 
L 2069 0 
z
M 2069 1613 
L 2069 3678 
L 634 1613 
L 2069 1613 
z
" transform="scale(0.015625)"/>
       </defs>
       <use xlink:href="#ArialMT-34"/>
       <use xlink:href="#ArialMT-30" transform="translate(55.615234 0)"/>
      </g>
     </g>
    </g>
    <g id="xtick_4">
     <g id="line2d_4">
      <g>
       <use xlink:href="#m3e1352fc8e" x="251.836364" y="256.32" style="fill: #262626; stroke: #262626"/>
      </g>
     </g>
     <g id="text_4">
      <!-- 60 -->
      <g style="fill: #262626" transform="translate(244.985289 273.438425) scale(0.1232 -0.1232)">
       <defs>
        <path id="ArialMT-36" d="M 3184 3459 
L 2625 3416 
Q 2550 3747 2413 3897 
Q 2184 4138 1850 4138 
Q 1581 4138 1378 3988 
Q 1113 3794 959 3422 
Q 806 3050 800 2363 
Q 1003 2672 1297 2822 
Q 1591 2972 1913 2972 
Q 2475 2972 2870 2558 
Q 3266 2144 3266 1488 
Q 3266 1056 3080 686 
Q 2894 316 2569 119 
Q 2244 -78 1831 -78 
Q 1128 -78 684 439 
Q 241 956 241 2144 
Q 241 3472 731 4075 
Q 1159 4600 1884 4600 
Q 2425 4600 2770 4297 
Q 3116 3994 3184 3459 
z
M 888 1484 
Q 888 1194 1011 928 
Q 1134 663 1356 523 
Q 1578 384 1822 384 
Q 2178 384 2434 671 
Q 2691 959 2691 1453 
Q 2691 1928 2437 2201 
Q 2184 2475 1800 2475 
Q 1419 2475 1153 2201 
Q 888 1928 888 1484 
z
" transform="scale(0.015625)"/>
       </defs>
       <use xlink:href="#ArialMT-36"/>
       <use xlink:href="#ArialMT-30" transform="translate(55.615234 0)"/>
      </g>
     </g>
    </g>
    <g id="xtick_5">
     <g id="line2d_5">
      <g>
       <use xlink:href="#m3e1352fc8e" x="312.709091" y="256.32" style="fill: #262626; stroke: #262626"/>
      </g>
     </g>
     <g id="text_5">
      <!-- 80 -->
      <g style="fill: #262626" transform="translate(305.858016 273.438425) scale(0.1232 -0.1232)">
       <defs>
        <path id="ArialMT-38" d="M 1131 2484 
Q 781 2613 612 2850 
Q 444 3088 444 3419 
Q 444 3919 803 4259 
Q 1163 4600 1759 4600 
Q 2359 4600 2725 4251 
Q 3091 3903 3091 3403 
Q 3091 3084 2923 2848 
Q 2756 2613 2416 2484 
Q 2838 2347 3058 2040 
Q 3278 1734 3278 1309 
Q 3278 722 2862 322 
Q 2447 -78 1769 -78 
Q 1091 -78 675 323 
Q 259 725 259 1325 
Q 259 1772 486 2073 
Q 713 2375 1131 2484 
z
M 1019 3438 
Q 1019 3113 1228 2906 
Q 1438 2700 1772 2700 
Q 2097 2700 2305 2904 
Q 2513 3109 2513 3406 
Q 2513 3716 2298 3927 
Q 2084 4138 1766 4138 
Q 1444 4138 1231 3931 
Q 1019 3725 1019 3438 
z
M 838 1322 
Q 838 1081 952 856 
Q 1066 631 1291 507 
Q 1516 384 1775 384 
Q 2178 384 2440 643 
Q 2703 903 2703 1303 
Q 2703 1709 2433 1975 
Q 2163 2241 1756 2241 
Q 1359 2241 1098 1978 
Q 838 1716 838 1322 
z
" transform="scale(0.015625)"/>
       </defs>
       <use xlink:href="#ArialMT-38"/>
       <use xlink:href="#ArialMT-30" transform="translate(55.615234 0)"/>
      </g>
     </g>
    </g>
    <g id="xtick_6">
     <g id="line2d_6">
      <g>
       <use xlink:href="#m3e1352fc8e" x="373.581818" y="256.32" style="fill: #262626; stroke: #262626"/>
      </g>
     </g>
     <g id="text_6">
      <!-- 100 -->
      <g style="fill: #262626" transform="translate(363.305206 273.438425) scale(0.1232 -0.1232)">
       <defs>
        <path id="ArialMT-31" d="M 2384 0 
L 1822 0 
L 1822 3584 
Q 1619 3391 1289 3197 
Q 959 3003 697 2906 
L 697 3450 
Q 1169 3672 1522 3987 
Q 1875 4303 2022 4600 
L 2384 4600 
L 2384 0 
z
" transform="scale(0.015625)"/>
       </defs>
       <use xlink:href="#ArialMT-31"/>
       <use xlink:href="#ArialMT-30" transform="translate(55.615234 0)"/>
       <use xlink:href="#ArialMT-30" transform="translate(111.230469 0)"/>
      </g>
     </g>
    </g>
   </g>
   <g id="matplotlib.axis_2">
    <g id="ytick_1">
     <g id="line2d_7">
      <defs>
       <path id="m61f95ea9ac" d="M 0 0 
L -4.8 0 
" style="stroke: #262626"/>
      </defs>
      <g>
       <use xlink:href="#m61f95ea9ac" x="54" y="251.759413" style="fill: #262626; stroke: #262626"/>
      </g>
     </g>
     <g id="text_7">
      <!-- −1 -->
      <g style="fill: #262626" transform="translate(31.653275 256.168625) scale(0.1232 -0.1232)">
       <defs>
        <path id="ArialMT-2212" d="M 3381 1997 
L 356 1997 
L 356 2522 
L 3381 2522 
L 3381 1997 
z
" transform="scale(0.015625)"/>
       </defs>
       <use xlink:href="#ArialMT-2212"/>
       <use xlink:href="#ArialMT-31" transform="translate(58.398438 0)"/>
      </g>
     </g>
    </g>
    <g id="ytick_2">
     <g id="line2d_8">
      <g>
       <use xlink:href="#m61f95ea9ac" x="54" y="199.308568" style="fill: #262626; stroke: #262626"/>
      </g>
     </g>
     <g id="text_8">
      <!-- 0 -->
      <g style="fill: #262626" transform="translate(38.848925 203.717781) scale(0.1232 -0.1232)">
       <use xlink:href="#ArialMT-30"/>
      </g>
     </g>
    </g>
    <g id="ytick_3">
     <g id="line2d_9">
      <g>
       <use xlink:href="#m61f95ea9ac" x="54" y="146.857724" style="fill: #262626; stroke: #262626"/>
      </g>
     </g>
     <g id="text_9">
      <!-- 1 -->
      <g style="fill: #262626" transform="translate(38.848925 151.266936) scale(0.1232 -0.1232)">
       <use xlink:href="#ArialMT-31"/>
      </g>
     </g>
    </g>
    <g id="ytick_4">
     <g id="line2d_10">
      <g>
       <use xlink:href="#m61f95ea9ac" x="54" y="94.406879" style="fill: #262626; stroke: #262626"/>
      </g>
     </g>
     <g id="text_10">
      <!-- 2 -->
      <g style="fill: #262626" transform="translate(38.848925 98.816092) scale(0.1232 -0.1232)">
       <use xlink:href="#ArialMT-32"/>
      </g>
     </g>
    </g>
    <g id="ytick_5">
     <g id="line2d_11">
      <g>
       <use xlink:href="#m61f95ea9ac" x="54" y="41.956034" style="fill: #262626; stroke: #262626"/>
      </g>
     </g>
     <g id="text_11">
      <!-- 3 -->
      <g style="fill: #262626" transform="translate(38.848925 46.365247) scale(0.1232 -0.1232)">
       <defs>
        <path id="ArialMT-33" d="M 269 1209 
L 831 1284 
Q 928 806 1161 595 
Q 1394 384 1728 384 
Q 2125 384 2398 659 
Q 2672 934 2672 1341 
Q 2672 1728 2419 1979 
Q 2166 2231 1775 2231 
Q 1616 2231 1378 2169 
L 1441 2663 
Q 1497 2656 1531 2656 
Q 1891 2656 2178 2843 
Q 2466 3031 2466 3422 
Q 2466 3731 2256 3934 
Q 2047 4138 1716 4138 
Q 1388 4138 1169 3931 
Q 950 3725 888 3313 
L 325 3413 
Q 428 3978 793 4289 
Q 1159 4600 1703 4600 
Q 2078 4600 2393 4439 
Q 2709 4278 2876 4000 
Q 3044 3722 3044 3409 
Q 3044 3113 2884 2869 
Q 2725 2625 2413 2481 
Q 2819 2388 3044 2092 
Q 3269 1797 3269 1353 
Q 3269 753 2831 336 
Q 2394 -81 1725 -81 
Q 1122 -81 723 278 
Q 325 638 269 1209 
z
" transform="scale(0.015625)"/>
       </defs>
       <use xlink:href="#ArialMT-33"/>
      </g>
     </g>
    </g>
   </g>
   <g id="line2d_12">
    <path d="M 69.218182 201.789495 
L 70.192243 185.794177 
L 71.227183 171.606509 
L 72.475198 158.871908 
L 73.144865 154.830504 
L 73.662335 153.03236 
L 73.905851 152.787365 
L 74.088487 152.837852 
L 74.301563 153.226343 
L 74.697275 154.405687 
L 75.153866 156.448769 
L 75.580018 159.319703 
L 76.188806 164.976457 
L 77.315064 177.705451 
L 78.228246 190.705197 
L 80.572081 225.229028 
L 81.63746 236.880452 
L 82.368006 243.334032 
L 82.733279 245.056318 
L 83.342067 246.209235 
L 83.524703 246.212223 
L 83.70734 245.855983 
L 83.981294 244.839694 
L 84.498764 241.651672 
L 84.985795 237.394019 
L 85.442386 231.519852 
L 85.929417 222.260897 
L 86.477326 207.237349 
L 87.025235 185.514775 
L 87.512266 156.913591 
L 88.121054 123.974532 
L 88.790721 99.914516 
L 89.612585 79.534922 
L 90.434449 65.083642 
L 91.195434 54.852986 
L 91.682465 50.558168 
L 92.260813 47.105892 
L 92.808723 45.25565 
L 93.113117 44.64 
L 93.265314 44.738913 
L 93.600147 45.235047 
L 93.96542 46.982231 
L 94.543769 51.130598 
L 95.670027 62.046588 
L 96.278815 70.421234 
L 99.840226 122.597986 
L 100.996923 134.116513 
L 101.636151 138.172223 
L 102.244939 140.51978 
L 102.579773 141.26639 
L 102.73197 141.255163 
L 103.158121 140.805733 
L 103.340758 140.382922 
L 103.675591 138.832364 
L 104.436576 133.7825 
L 105.25844 126.408125 
L 106.232501 113.68282 
L 107.571835 94.375504 
L 109.459079 66.347681 
L 110.463579 54.731734 
L 111.102807 50.323531 
L 111.681155 47.721728 
L 111.95511 47.288284 
L 112.198625 47.289558 
L 112.47258 47.578847 
L 112.655216 48.042073 
L 113.385762 51.250399 
L 114.02499 54.481131 
L 114.420702 57.701962 
L 115.364324 67.908976 
L 116.642779 86.912734 
L 118.834416 122.510438 
L 119.960674 135.173516 
L 120.508584 138.917997 
L 120.965175 140.906451 
L 121.421766 141.994954 
L 121.756599 142.36667 
L 122.060993 142.464431 
L 122.24363 142.155026 
L 122.669782 140.839187 
L 123.126373 138.62444 
L 123.552524 135.362523 
L 124.28307 127.437912 
L 125.683283 108.760789 
L 128.635905 64.481409 
L 129.396891 56.411282 
L 129.883921 52.895535 
L 130.9493 47.662184 
L 131.588528 46.297639 
L 131.832043 46.467466 
L 132.045119 46.806523 
L 132.349513 48.110166 
L 132.623468 49.909395 
L 133.414892 58.216563 
L 134.57159 72.511819 
L 136.09356 94.425965 
L 138.16344 123.285166 
L 139.16794 134.187092 
L 139.989804 139.796941 
L 140.415956 141.312183 
L 140.689911 141.792899 
L 141.146502 141.833032 
L 141.359578 141.448712 
L 141.846608 139.863322 
L 142.516275 136.81165 
L 142.911988 134.044336 
L 143.520776 127.676074 
L 144.160003 118.843919 
L 147.325702 71.64004 
L 148.512839 57.263805 
L 149.395581 49.870863 
L 149.760854 48.431913 
L 150.065248 47.767505 
L 150.339203 47.598987 
L 150.4914 47.722224 
L 150.704476 48.218927 
L 151.830734 51.715418 
L 152.165567 53.805394 
L 152.804795 59.270415 
L 153.413583 66.681278 
L 155.270387 95.276535 
L 156.609721 113.882225 
L 158.436085 135.10808 
L 158.983995 138.492315 
L 159.988495 142.228569 
L 160.201571 142.395705 
L 160.353768 142.318853 
L 160.536405 141.948058 
L 160.840799 140.496458 
L 161.510466 135.850572 
L 162.271451 128.841695 
L 163.549906 113.549885 
L 164.645725 96.461659 
L 165.771983 79.589673 
L 167.628787 55.409322 
L 168.328893 49.705904 
L 168.785484 47.472641 
L 169.089878 46.770757 
L 169.242075 46.758289 
L 169.942181 47.36912 
L 170.216136 48.075135 
L 170.52053 49.362782 
L 171.281515 54.489137 
L 171.859864 59.007614 
L 172.559971 66.294804 
L 173.473153 79.189234 
L 176.486654 123.764736 
L 177.2172 130.68298 
L 178.586973 139.568559 
L 178.952246 140.160025 
L 179.165322 140.112922 
L 179.439277 139.665439 
L 179.80455 138.716406 
L 180.048065 137.6815 
L 181.265641 130.870796 
L 181.874429 124.221373 
L 182.84849 111.455003 
L 183.609475 99.59764 
L 185.618476 68.348425 
L 186.379462 60.20756 
L 187.383962 51.931665 
L 187.962311 48.499427 
L 188.358023 47.307409 
L 188.753735 46.756137 
L 189.088569 46.883959 
L 189.392963 47.50526 
L 189.697357 48.746471 
L 190.123509 51.532066 
L 191.128009 61.263135 
L 191.797676 69.787204 
L 193.989313 101.918998 
L 195.480844 123.084196 
L 196.515784 134.483599 
L 196.972375 137.913089 
L 197.368088 139.509397 
L 197.915997 141.159908 
L 198.220391 141.503242 
L 198.433467 141.618972 
L 198.616103 141.457794 
L 198.829179 140.833803 
L 199.346649 138.453245 
L 199.681483 136.310341 
L 200.412028 130.375135 
L 201.203453 122.443243 
L 202.177514 109.570014 
L 205.708485 58.340324 
L 206.49991 50.581247 
L 207.169577 46.5776 
L 207.473971 45.861775 
L 207.839244 45.684889 
L 207.991441 45.753221 
L 208.326274 46.34892 
L 208.53935 47.097056 
L 208.995941 49.618024 
L 209.878684 56.82664 
L 210.700548 66.031111 
L 212.070322 85.804003 
L 214.109762 118.178378 
L 215.114262 130.171941 
L 215.783929 135.965554 
L 216.910187 142.797918 
L 217.153703 143.363033 
L 217.549415 143.694629 
L 217.79293 143.428592 
L 218.006006 142.80598 
L 218.3104 141.409788 
L 219.162704 135.017613 
L 220.075886 125.962716 
L 220.89775 114.512538 
L 224.97663 58.0778 
L 225.554979 53.072534 
L 226.04201 50.197977 
L 226.437722 48.546708 
L 226.742116 48.059369 
L 227.07695 47.998151 
L 227.320465 48.35955 
L 227.624859 49.176071 
L 227.990132 51.253023 
L 229.025072 58.753422 
L 229.755617 65.519135 
L 230.364406 73.560217 
L 234.595483 134.616191 
L 235.204271 139.341853 
L 235.813059 142.019528 
L 236.239211 142.846397 
L 236.847999 143.517911 
L 237.000196 143.403831 
L 237.33503 143.03362 
L 237.578545 141.998895 
L 238.004697 138.913447 
L 238.765682 131.461324 
L 239.678864 119.870043 
L 241.474789 91.857668 
L 243.362033 63.351525 
L 244.244775 54.597614 
L 245.005761 49.607159 
L 245.675428 46.793268 
L 246.162458 46.032165 
L 246.405973 45.932628 
L 246.527731 46.027906 
L 246.832125 46.873987 
L 247.197398 48.717602 
L 247.897504 53.705457 
L 248.445414 58.66379 
L 249.632551 73.480367 
L 250.941445 93.705213 
L 252.706931 120.119119 
L 253.802749 132.080766 
L 254.594174 138.104199 
L 255.29428 142.294501 
L 255.629114 143.033877 
L 255.781311 143.006689 
L 255.933508 142.753701 
L 256.450978 141.091455 
L 257.029327 137.774146 
L 257.851191 130.979104 
L 259.099206 115.382262 
L 261.260404 82.281115 
L 262.112708 68.460767 
L 263.056329 56.657579 
L 263.634678 51.588902 
L 264.273906 48.362144 
L 264.852254 46.745809 
L 265.06533 46.683561 
L 265.491482 47.350889 
L 265.887194 48.645902 
L 266.435104 51.637933 
L 266.861255 55.169904 
L 268.078832 67.367736 
L 269.783438 90.915106 
L 272.979576 134.223106 
L 273.710122 139.646842 
L 274.136274 141.22399 
L 274.623304 142.464796 
L 275.019016 142.739024 
L 275.292971 142.620812 
L 275.475608 142.084066 
L 275.780002 140.341853 
L 276.419229 135.114078 
L 277.271533 126.879529 
L 278.823942 105.528099 
L 280.680746 76.474504 
L 281.472171 65.645552 
L 282.750626 52.107091 
L 283.237656 48.930729 
L 283.694248 47.10287 
L 284.181278 46.340706 
L 284.424793 46.311882 
L 284.57699 46.521576 
L 284.972703 47.828092 
L 285.520612 50.970355 
L 286.038082 54.830567 
L 286.738188 61.045518 
L 287.468734 71.209262 
L 290.512675 116.755001 
L 291.395418 126.991908 
L 292.186842 133.822529 
L 293.434858 141.086352 
L 293.739252 141.455507 
L 294.226283 141.069053 
L 294.500237 140.453321 
L 294.804631 139.33387 
L 295.200344 136.910858 
L 295.930889 130.742947 
L 297.087587 117.539815 
L 297.93989 105.803049 
L 300.588119 66.778091 
L 301.53174 57.135679 
L 302.04921 53.271844 
L 303.023271 48.026469 
L 303.327665 47.548393 
L 303.479863 47.327872 
L 303.784257 46.81734 
L 303.906014 46.889799 
L 304.058211 47.235373 
L 304.362605 48.733438 
L 304.971394 52.498619 
L 305.64106 58.077278 
L 306.736879 71.068423 
L 307.680501 84.306242 
L 310.450487 126.177773 
L 311.30279 135.365164 
L 311.972457 140.241928 
L 312.36817 141.896632 
L 312.824761 142.647752 
L 313.037837 142.689328 
L 313.250912 142.479869 
L 313.555306 141.515185 
L 314.316292 138.10412 
L 315.138156 131.848756 
L 316.051338 121.214382 
L 316.994959 106.707204 
L 320.06934 61.292871 
L 320.708567 55.358113 
L 321.682628 49.121536 
L 322.169659 47.742298 
L 322.413174 47.410936 
L 322.656689 47.30556 
L 322.930644 47.674787 
L 323.265477 48.790156 
L 323.66119 50.404665 
L 324.087341 53.283724 
L 324.939645 61.024512 
L 326.492055 80.294319 
L 327.2226 91.656795 
L 328.77501 114.629806 
L 329.688192 126.180702 
L 330.631814 135.211597 
L 331.240602 139.053454 
L 331.575436 140.030374 
L 332.001587 140.556911 
L 332.36686 140.62231 
L 332.640815 140.176393 
L 332.945209 139.054315 
L 333.493118 136.144443 
L 334.254104 130.219534 
L 335.075968 120.429914 
L 336.50662 101.351625 
L 338.820015 66.44287 
L 339.733197 56.649747 
L 340.433303 51.181364 
L 340.889894 48.816201 
L 341.224728 47.882201 
L 341.559561 47.512562 
L 341.711758 47.548082 
L 342.13791 48.132282 
L 342.777138 50.379671 
L 343.233729 53.045772 
L 343.842517 58.084362 
L 344.542623 65.964412 
L 346.399427 91.436505 
L 348.651943 125.632343 
L 349.595565 135.475994 
L 350.113035 138.995796 
L 350.569626 140.946894 
L 351.147975 142.624209 
L 351.330611 142.829582 
L 351.574127 142.708671 
L 352.030718 141.703594 
L 352.42643 139.814517 
L 352.791703 136.971263 
L 353.583127 129.078049 
L 354.191916 120.851899 
L 355.379052 104.012694 
L 358.362114 62.300101 
L 359.305736 52.327219 
L 359.975403 48.382739 
L 360.431994 46.92358 
L 360.675509 46.766434 
L 361.101661 46.838024 
L 361.375616 47.216766 
L 361.923525 48.971303 
L 362.288798 51.291524 
L 363.049783 58.425643 
L 364.206481 72.418464 
L 365.424057 90.040902 
L 367.798331 125.459563 
L 368.802831 134.767293 
L 369.624695 139.624074 
L 370.203044 142.161307 
L 370.476999 142.518387 
L 370.690074 142.53358 
L 371.177105 141.749081 
L 371.664136 139.947552 
L 373.033909 134.482238 
L 373.399182 134.01827 
L 373.581818 134.089466 
L 373.581818 134.089466 
" clip-path="url(#p4957dbdcde)" style="fill: none; stroke: #1a2441; stroke-width: 1.5; stroke-linecap: round"/>
   </g>
   <g id="patch_3">
    <path d="M 54 256.32 
L 54 34.56 
" style="fill: none; stroke: #262626; stroke-linejoin: miter; stroke-linecap: square"/>
   </g>
   <g id="patch_4">
    <path d="M 388.8 256.32 
L 388.8 34.56 
" style="fill: none; stroke: #262626; stroke-linejoin: miter; stroke-linecap: square"/>
   </g>
   <g id="patch_5">
    <path d="M 54 256.32 
L 388.8 256.32 
" style="fill: none; stroke: #262626; stroke-linejoin: miter; stroke-linecap: square"/>
   </g>
   <g id="patch_6">
    <path d="M 54 34.56 
L 388.8 34.56 
" style="fill: none; stroke: #262626; stroke-linejoin: miter; stroke-linecap: square"/>
   </g>
  </g>
 </g>
 <defs>
  <clipPath id="p4957dbdcde">
   <rect x="54" y="34.56" width="334.8" height="221.76"/>
  </clipPath>
 </defs>
</svg>
