<svg class="main-svg" xmlns="http://www.w3.org/2000/svg" xmlns:xlink="http://www.w3.org/1999/xlink" width="700" height="500" style="" viewBox="0 0 700 500"><rect x="0" y="0" width="700" height="500" style="fill: rgb(255, 255, 255); fill-opacity: 1;"/><defs id="defs-be8e0e"><g class="clips"><clipPath id="clipbe8e0exyplot" class="plotclip"><rect width="540" height="320"/></clipPath><clipPath class="axesclip" id="clipbe8e0ex"><rect x="80" y="0" width="540" height="500"/></clipPath><clipPath class="axesclip" id="clipbe8e0ey"><rect x="0" y="100" width="700" height="320"/></clipPath><clipPath class="axesclip" id="clipbe8e0exy"><rect x="80" y="100" width="540" height="320"/></clipPath></g><g class="gradients"/><g class="patterns"/></defs><g class="bglayer"/><g class="layer-below"><g class="imagelayer"/><g class="shapelayer"/></g><g class="cartesianlayer"><g class="subplot xy"><g class="layer-subplot"><g class="shapelayer"/><g class="imagelayer"/></g><g class="minor-gridlayer"><g class="x"/><g class="y"/></g><g class="gridlayer"><g class="x"><path class="xgrid crisp" transform="translate(188,0)" d="M0,100v320" style="stroke: rgb(255, 255, 255); stroke-opacity: 1; stroke-width: 1px;"/><path class="xgrid crisp" transform="translate(296,0)" d="M0,100v320" style="stroke: rgb(255, 255, 255); stroke-opacity: 1; stroke-width: 1px;"/><path class="xgrid crisp" transform="translate(404,0)" d="M0,100v320" style="stroke: rgb(255, 255, 255); stroke-opacity: 1; stroke-width: 1px;"/><path class="xgrid crisp" transform="translate(512,0)" d="M0,100v320" style="stroke: rgb(255, 255, 255); stroke-opacity: 1; stroke-width: 1px;"/></g><g class="y"><path class="ygrid crisp" transform="translate(0,413.33)" d="M80,0h540" style="stroke: rgb(255, 255, 255); stroke-opacity: 1; stroke-width: 1px;"/><path class="ygrid crisp" transform="translate(0,375.43)" d="M80,0h540" style="stroke: rgb(255, 255, 255); stroke-opacity: 1; stroke-width: 1px;"/><path class="ygrid crisp" transform="translate(0,299.62)" d="M80,0h540" style="stroke: rgb(255, 255, 255); stroke-opacity: 1; stroke-width: 1px;"/><path class="ygrid crisp" transform="translate(0,261.72)" d="M80,0h540" style="stroke: rgb(255, 255, 255); stroke-opacity: 1; stroke-width: 1px;"/><path class="ygrid crisp" transform="translate(0,223.82)" d="M80,0h540" style="stroke: rgb(255, 255, 255); stroke-opacity: 1; stroke-width: 1px;"/><path class="ygrid crisp" transform="translate(0,185.92000000000002)" d="M80,0h540" style="stroke: rgb(255, 255, 255); stroke-opacity: 1; stroke-width: 1px;"/><path class="ygrid crisp" transform="translate(0,148.01)" d="M80,0h540" style="stroke: rgb(255, 255, 255); stroke-opacity: 1; stroke-width: 1px;"/><path class="ygrid crisp" transform="translate(0,110.11)" d="M80,0h540" style="stroke: rgb(255, 255, 255); stroke-opacity: 1; stroke-width: 1px;"/></g></g><g class="zerolinelayer"><path class="yzl zl crisp" transform="translate(0,337.52)" d="M80,0h540" style="stroke: rgb(255, 255, 255); stroke-opacity: 1; stroke-width: 2px;"/></g><g class="layer-between"><g class="shapelayer"/><g class="imagelayer"/></g><path class="xlines-below"/><path class="ylines-below"/><g class="overlines-below"/><g class="xaxislayer-below"/><g class="yaxislayer-below"/><g class="overaxes-below"/><g class="overplot"><g class="xy" transform="translate(80,100)" clip-path="url(#clipbe8e0exyplot)"><g class="scatterlayer mlayer"><g class="trace scatter traceeda66a" style="stroke-miterlimit: 2; opacity: 1;"><g class="fills"/><g class="errorbars"/><g class="lines"><path class="js-line" d="M0,207.08L0.76,208.9L0.97,208.64L1.03,208.5L2,203.79L2.05,203.39L7.72,166.97L7.78,166.86L8.48,166.4L8.69,166.59L8.75,166.66L9.94,169.96L9.99,170.16L11.23,176.55L11.29,176.93L13.99,202.9L14.04,203.51L19.28,265.42L19.33,266.06L22.9,297.91L22.95,298.17L25,303.98L25.06,304L25.65,303.13L25.71,302.97L27.6,294.19L27.65,293.82L29.32,275.59L29.38,274.75L31.22,231.45L31.27,229.64L35.91,69.87L35.97,68.89L38.45,35.54L38.51,35L40.72,19.51L40.77,19.31L42.45,16.24L42.5,16.25L43.47,17.56L43.53,17.68L45.04,24.45L45.09,24.8L46.88,39.54L46.93,40.05L51.36,92.49L51.41,93.27L55.46,137.46L55.52,137.85L58.27,153.43L58.33,153.57L59.84,155.51L59.89,155.52L60.59,155.07L60.65,154.95L61.73,149.35L61.78,149L63.89,131.95L63.94,131.44L67.02,98.36L67.07,97.72L74.04,24.2L74.1,23.88L75.77,17.67L75.82,17.63L76.58,18.12L76.63,18.21L78.09,22.07L78.15,22.34L81.28,44.01L81.33,44.5L83.55,69.04L83.6,69.74L88.46,127.3L88.51,127.78L92.51,154.3L92.57,154.35L94.35,154.88L94.4,154.79L94.46,154.68L95.81,148.35L95.86,148.02L98.78,124L98.83,123.41L107.42,25.38L107.47,25.05L109.25,18.38L109.31,18.35L110.87,18.13L110.93,18.17L111.74,20.02L111.79,20.24L113.41,29.36L113.47,29.69L116.22,52.65L116.27,53.26L119.68,96.97L119.73,97.62L124.21,145.34L124.27,145.76L126.05,154.37L126.1,154.51L127.29,155.43L127.34,155.38L127.4,155.31L128.59,152.13L128.64,151.94L130.8,139.31L130.86,138.85L134.37,100.8L134.42,100.14L139.93,36.21L139.98,35.76L143.06,18.02L143.11,17.89L144.19,16.21L144.52,16.37L144.57,16.41L145.54,18.78L145.6,18.98L147.65,31.05L147.7,31.52L150.41,58.49L150.46,59.1L157.8,142.5L157.86,142.86L160.4,155.36L160.45,155.46L161.1,155.8L161.31,155.54L161.37,155.43L163.2,149.7L163.26,149.4L165.85,129.24L165.9,128.63L176.22,22.35L176.27,22.14L178.06,17.82L178.27,17.99L178.33,18.05L179.84,21.05L179.89,21.27L181.57,29.74L181.62,30.06L183.56,46.67L183.62,47.32L191.34,141.09L191.4,141.49L193.5,151.83L193.56,151.94L195.28,153.93L195.34,153.93L196.26,152.59L196.31,152.44L197.44,147.73L197.5,147.35L201.44,110.89L201.49,110.32L204.36,74.81L204.41,74.11L208.14,33.52L208.19,33.11L210.51,19.77L210.57,19.61L212.08,17.67L212.13,17.7L212.19,17.75L212.89,19.51L212.94,19.7L214.24,25.9L214.29,26.19L216.35,39.27L216.4,39.76L221.37,97.68L221.42,98.35L226.71,150.46L226.77,150.71L228.5,155.54L228.55,155.61L229.58,155.88L229.68,155.75L229.74,155.66L231.09,151.51L231.14,151.23L233.09,137.83L233.14,137.39L235.14,116.84L235.19,116.19L243.62,24.87L243.67,24.51L245.83,16.04L245.89,16.02L246.7,16.76L246.75,16.85L247.83,20.1L247.88,20.32L249.34,29.23L249.4,29.63L251.99,56.26L252.04,56.96L259.93,144.61L259.98,144.95L262.2,153.07L262.25,153.17L263.49,153.75L263.55,153.73L264.3,152.58L264.36,152.43L265.92,145.46L265.98,145.05L269.54,110.65L269.59,109.9L276.56,30.9L276.62,30.56L279.05,19.39L279.1,19.26L280.4,17.83L280.45,17.87L280.5,17.95L281.53,20.78L281.58,21L283.15,29.59L283.2,30L285.26,48.77L285.31,49.34L294.38,149.83L294.44,150.15L295.9,154.4L295.95,154.43L297.03,153.78L297.08,153.74L298.33,151.84L298.38,151.67L300.22,143.42L300.27,143.05L302.97,116.43L303.02,115.82L305.78,80.22L305.83,79.53L310.96,27.76L311.02,27.49L313.29,19.26L313.34,19.26L314.15,20.36L314.2,20.46L315.61,24.54L315.66,24.77L317.5,34.76L317.55,35.13L319.5,52.24L319.55,52.8L325.76,128.26L325.81,128.87L328.51,149.05L328.57,149.2L330.62,152.32L330.68,152.38L331.65,152.28L331.7,152.26L332.46,151.37L332.51,151.2L333.86,145.61L333.92,145.3L335.91,127.28L335.97,126.7L344.93,26.5L344.99,26.13L346.61,19.94L346.66,19.88L349.09,19.11L349.14,19.16L349.95,21.52L350.01,21.82L352.17,39.1L352.22,39.65L354.98,71.84L355.03,72.54L361.67,144.19L361.73,144.57L363.56,152.64L363.62,152.82L364.86,154.63L364.91,154.61L364.97,154.59L365.89,153.53L365.94,153.41L366.91,149.1L366.97,148.79L369.61,127.88L369.67,127.31L379.01,25.95L379.06,25.63L381.12,18.72L381.17,18.66L382.09,18.5L382.2,18.61L382.25,18.69L383.44,21.87L383.49,22.03L384.9,28.6L384.95,28.99L388.03,58.49L388.08,59.12L393.27,123.45L393.32,124.05L396.62,148.93L396.67,149.13L398.29,152.47L398.34,152.51L399.15,152.09L399.21,151.99L400.67,146.82L400.72,146.57L402.83,132.96L402.88,132.47L409.09,61.96L409.14,61.32L413.47,23.07L413.52,22.82L415.3,17.94L415.36,17.93L416.44,18.27L416.49,18.39L417.62,21.9L417.68,22.14L419.84,36.71L419.89,37.28L424.75,93.4L424.81,94.11L428.32,133.9L428.37,134.36L430.91,150.83L430.96,151.08L432.69,155.29L432.75,155.32L433.61,154.62L433.66,154.52L434.85,150.18L434.91,149.9L437.5,130.63L437.55,130.09L440.04,99.39L440.09,98.68L444.68,42.47L444.73,41.96L447.92,20.62L447.97,20.45L449.49,17.46L449.65,17.57L449.7,17.6L450.73,19.37L450.78,19.52L451.86,24.23L451.92,24.54L454.62,45.17L454.67,45.64L456.62,66.79L456.67,67.48L462.5,137.74L462.56,138.24L464.61,151.31L464.66,151.54L466.28,155.13L466.34,155.15L467.52,153.76L467.58,153.65L468.87,148.82L468.93,148.5L472.01,122.8L472.06,122.14L481.24,22.97L481.3,22.73L483.24,17.46L483.29,17.43L484.27,17.43L484.32,17.52L484.37,17.61L485.72,21.94L485.78,22.19L487.78,36.88L487.83,37.42L493.72,109.87L493.77,110.57L497.44,145.44L497.5,145.79L499.33,153.57L499.39,153.72L500.63,155.19L500.74,155.13L500.79,155.09L501.66,153.08L501.71,152.92L503.71,143.73L503.76,143.32L505.87,123.45L505.92,122.87L508.46,91.27L508.51,90.51L513.81,31.29L513.86,30.84L516.13,19.39L516.18,19.27L517.91,17.63L517.97,17.6L518.67,17.74L518.78,17.93L518.83,18.05L519.91,22.86L519.96,23.17L521.75,37.04L521.8,37.53L526.17,88.61L526.23,89.27L530.98,142.3L531.04,142.66L533.09,152.51L533.14,152.65L534.71,154.7L534.76,154.69L535.9,152.97L535.95,152.83L536.92,148.39L536.98,148.1L540,132.33" style="vector-effect: none; fill: none; stroke: rgb(0, 0, 0); stroke-opacity: 1; stroke-width: 2px; opacity: 1;"/></g><g class="points"/><g class="text"/></g></g></g></g><path class="xlines-above crisp" d="M79,420.5H621M79,99.5H621" style="fill: none; stroke-width: 1px; stroke: rgb(0, 0, 0); stroke-opacity: 1;"/><path class="ylines-above crisp" d="M79.5,100V420M620.5,100V420" style="fill: none; stroke-width: 1px; stroke: rgb(0, 0, 0); stroke-opacity: 1;"/><g class="overlines-above"/><g class="xaxislayer-above"><path class="xtick ticks crisp" d="M0,421v5" transform="translate(80,0)" style="stroke: rgb(68, 68, 68); stroke-opacity: 1; stroke-width: 1px;"/><path class="xtick ticks crisp" d="M0,421v5" transform="translate(188,0)" style="stroke: rgb(68, 68, 68); stroke-opacity: 1; stroke-width: 1px;"/><path class="xtick ticks crisp" d="M0,421v5" transform="translate(296,0)" style="stroke: rgb(68, 68, 68); stroke-opacity: 1; stroke-width: 1px;"/><path class="xtick ticks crisp" d="M0,421v5" transform="translate(404,0)" style="stroke: rgb(68, 68, 68); stroke-opacity: 1; stroke-width: 1px;"/><path class="xtick ticks crisp" d="M0,421v5" transform="translate(512,0)" style="stroke: rgb(68, 68, 68); stroke-opacity: 1; stroke-width: 1px;"/><path class="xtick ticks crisp" d="M0,421v5" transform="translate(620,0)" style="stroke: rgb(68, 68, 68); stroke-opacity: 1; stroke-width: 1px;"/><g class="xtick"><text text-anchor="middle" x="0" y="440.4" transform="translate(80,0)" style="font-family: 'Open Sans', verdana, arial, sans-serif; font-size: 12px; fill: rgb(42, 63, 95); fill-opacity: 1; white-space: pre; opacity: 1;">0</text></g><g class="xtick"><text text-anchor="middle" x="0" y="440.4" style="font-family: 'Open Sans', verdana, arial, sans-serif; font-size: 12px; fill: rgb(42, 63, 95); fill-opacity: 1; white-space: pre; opacity: 1;" transform="translate(188,0)">20</text></g><g class="xtick"><text text-anchor="middle" x="0" y="440.4" style="font-family: 'Open Sans', verdana, arial, sans-serif; font-size: 12px; fill: rgb(42, 63, 95); fill-opacity: 1; white-space: pre; opacity: 1;" transform="translate(296,0)">40</text></g><g class="xtick"><text text-anchor="middle" x="0" y="440.4" style="font-family: 'Open Sans', verdana, arial, sans-serif; font-size: 12px; fill: rgb(42, 63, 95); fill-opacity: 1; white-space: pre; opacity: 1;" transform="translate(404,0)">60</text></g><g class="xtick"><text text-anchor="middle" x="0" y="440.4" style="font-family: 'Open Sans', verdana, arial, sans-serif; font-size: 12px; fill: rgb(42, 63, 95); fill-opacity: 1; white-space: pre; opacity: 1;" transform="translate(512,0)">80</text></g><g class="xtick"><text text-anchor="middle" x="0" y="440.4" style="font-family: 'Open Sans', verdana, arial, sans-serif; font-size: 12px; fill: rgb(42, 63, 95); fill-opacity: 1; white-space: pre; opacity: 1;" transform="translate(620,0)">100</text></g></g><g class="yaxislayer-above"><path class="ytick ticks crisp" d="M79,0h-5" transform="translate(0,413.33)" style="stroke: rgb(68, 68, 68); stroke-opacity: 1; stroke-width: 1px;"/><path class="ytick ticks crisp" d="M79,0h-5" transform="translate(0,375.43)" style="stroke: rgb(68, 68, 68); stroke-opacity: 1; stroke-width: 1px;"/><path class="ytick ticks crisp" d="M79,0h-5" transform="translate(0,337.52)" style="stroke: rgb(68, 68, 68); stroke-opacity: 1; stroke-width: 1px;"/><path class="ytick ticks crisp" d="M79,0h-5" transform="translate(0,299.62)" style="stroke: rgb(68, 68, 68); stroke-opacity: 1; stroke-width: 1px;"/><path class="ytick ticks crisp" d="M79,0h-5" transform="translate(0,261.72)" style="stroke: rgb(68, 68, 68); stroke-opacity: 1; stroke-width: 1px;"/><path class="ytick ticks crisp" d="M79,0h-5" transform="translate(0,223.82)" style="stroke: rgb(68, 68, 68); stroke-opacity: 1; stroke-width: 1px;"/><path class="ytick ticks crisp" d="M79,0h-5" transform="translate(0,185.92000000000002)" style="stroke: rgb(68, 68, 68); stroke-opacity: 1; stroke-width: 1px;"/><path class="ytick ticks crisp" d="M79,0h-5" transform="translate(0,148.01)" style="stroke: rgb(68, 68, 68); stroke-opacity: 1; stroke-width: 1px;"/><path class="ytick ticks crisp" d="M79,0h-5" transform="translate(0,110.11)" style="stroke: rgb(68, 68, 68); stroke-opacity: 1; stroke-width: 1px;"/><g class="ytick"><text text-anchor="end" x="71.6" y="4.199999999999999" transform="translate(0,413.33)" style="font-family: 'Open Sans', verdana, arial, sans-serif; font-size: 12px; fill: rgb(42, 63, 95); fill-opacity: 1; white-space: pre; opacity: 1;">−1</text></g><g class="ytick"><text text-anchor="end" x="71.6" y="4.199999999999999" style="font-family: 'Open Sans', verdana, arial, sans-serif; font-size: 12px; fill: rgb(42, 63, 95); fill-opacity: 1; white-space: pre; opacity: 1;" transform="translate(0,375.43)">−0.5</text></g><g class="ytick"><text text-anchor="end" x="71.6" y="4.199999999999999" style="font-family: 'Open Sans', verdana, arial, sans-serif; font-size: 12px; fill: rgb(42, 63, 95); fill-opacity: 1; white-space: pre; opacity: 1;" transform="translate(0,337.52)">0</text></g><g class="ytick"><text text-anchor="end" x="71.6" y="4.199999999999999" style="font-family: 'Open Sans', verdana, arial, sans-serif; font-size: 12px; fill: rgb(42, 63, 95); fill-opacity: 1; white-space: pre; opacity: 1;" transform="translate(0,299.62)">0.5</text></g><g class="ytick"><text text-anchor="end" x="71.6" y="4.199999999999999" style="font-family: 'Open Sans', verdana, arial, sans-serif; font-size: 12px; fill: rgb(42, 63, 95); fill-opacity: 1; white-space: pre; opacity: 1;" transform="translate(0,261.72)">1</text></g><g class="ytick"><text text-anchor="end" x="71.6" y="4.199999999999999" style="font-family: 'Open Sans', verdana, arial, sans-serif; font-size: 12px; fill: rgb(42, 63, 95); fill-opacity: 1; white-space: pre; opacity: 1;" transform="translate(0,223.82)">1.5</text></g><g class="ytick"><text text-anchor="end" x="71.6" y="4.199999999999999" style="font-family: 'Open Sans', verdana, arial, sans-serif; font-size: 12px; fill: rgb(42, 63, 95); fill-opacity: 1; white-space: pre; opacity: 1;" transform="translate(0,185.92000000000002)">2</text></g><g class="ytick"><text text-anchor="end" x="71.6" y="4.199999999999999" style="font-family: 'Open Sans', verdana, arial, sans-serif; font-size: 12px; fill: rgb(42, 63, 95); fill-opacity: 1; white-space: pre; opacity: 1;" transform="translate(0,148.01)">2.5</text></g><g class="ytick"><text text-anchor="end" x="71.6" y="4.199999999999999" style="font-family: 'Open Sans', verdana, arial, sans-serif; font-size: 12px; fill: rgb(42, 63, 95); fill-opacity: 1; white-space: pre; opacity: 1;" transform="translate(0,110.11)">3</text></g></g><g class="overaxes-above"/></g></g><g class="polarlayer"/><g class="smithlayer"/><g class="ternarylayer"/><g class="geolayer"/><g class="funnelarealayer"/><g class="pielayer"/><g class="iciclelayer"/><g class="treemaplayer"/><g class="sunburstlayer"/><g class="glimages"/><defs id="topdefs-be8e0e"><g class="clips"/></defs><g class="layer-above"><g class="imagelayer"/><g class="shapelayer"/></g><g class="infolayer"><g class="g-gtitle"/><g class="g-xtitle"/><g class="g-ytitle"/></g></svg>