<?xml version="1.0" encoding="utf-8" standalone="no"?>
<!DOCTYPE svg PUBLIC "-//W3C//DTD SVG 1.1//EN"
  "http://www.w3.org/Graphics/SVG/1.1/DTD/svg11.dtd">
<svg xmlns:xlink="http://www.w3.org/1999/xlink" width="432pt" height="288pt" viewBox="0 0 432 288" xmlns="http://www.w3.org/2000/svg" version="1.1">
 <metadata>
  <rdf:RDF xmlns:dc="http://purl.org/dc/elements/1.1/" xmlns:cc="http://creativecommons.org/ns#" xmlns:rdf="http://www.w3.org/1999/02/22-rdf-syntax-ns#">
   <cc:Work>
    <dc:type rdf:resource="http://purl.org/dc/dcmitype/StillImage"/>
    <dc:date>2025-11-07T10:04:56.489691</dc:date>
    <dc:format>image/svg+xml</dc:format>
    <dc:creator>
     <cc:Agent>
      <dc:title>Matplotlib v3.10.1, https://matplotlib.org/</dc:title>
     </cc:Agent>
    </dc:creator>
   </cc:Work>
  </rdf:RDF>
 </metadata>
 <defs>
  <style type="text/css">*{stroke-linejoin: round; stroke-linecap: butt}</style>
 </defs>
 <g id="figure_1">
  <g id="patch_1">
   <path d="M 0 288 
L 432 288 
L 432 0 
L 0 0 
z
" style="fill: #ffffff"/>
  </g>
  <g id="axes_1">
   <g id="patch_2">
    <path d="M 54 256.32 
L 388.8 256.32 
L 388.8 34.56 
L 54 34.56 
z
" style="fill: #ffffff"/>
   </g>
   <g id="matplotlib.axis_1">
    <g id="xtick_1">
     <g id="line2d_1">
      <defs>
       <path id="mbe264331b2" d="M 0 0 
L 0 4.8 
" style="stroke: #262626"/>
      </defs>
      <g>
       <use xlink:href="#mbe264331b2" x="69.218182" y="256.32" style="fill: #262626; stroke: #262626"/>
      </g>
     </g>
     <g id="text_1">
      <!-- 0 -->
      <g style="fill: #262626" transform="translate(65.792644 273.438425) scale(0.1232 -0.1232)">
       <defs>
        <path id="ArialMT-30" d="M 266 2259 
Q 266 3072 433 3567 
Q 600 4063 929 4331 
Q 1259 4600 1759 4600 
Q 2128 4600 2406 4451 
Q 2684 4303 2865 4023 
Q 3047 3744 3150 3342 
Q 3253 2941 3253 2259 
Q 3253 1453 3087 958 
Q 2922 463 2592 192 
Q 2263 -78 1759 -78 
Q 1097 -78 719 397 
Q 266 969 266 2259 
z
M 844 2259 
Q 844 1131 1108 757 
Q 1372 384 1759 384 
Q 2147 384 2411 759 
Q 2675 1134 2675 2259 
Q 2675 3391 2411 3762 
Q 2147 4134 1753 4134 
Q 1366 4134 1134 3806 
Q 844 3388 844 2259 
z
" transform="scale(0.015625)"/>
       </defs>
       <use xlink:href="#ArialMT-30"/>
      </g>
     </g>
    </g>
    <g id="xtick_2">
     <g id="line2d_2">
      <g>
       <use xlink:href="#mbe264331b2" x="130.090909" y="256.32" style="fill: #262626; stroke: #262626"/>
      </g>
     </g>
     <g id="text_2">
      <!-- 20 -->
      <g style="fill: #262626" transform="translate(123.239834 273.438425) scale(0.1232 -0.1232)">
       <defs>
        <path id="ArialMT-32" d="M 3222 541 
L 3222 0 
L 194 0 
Q 188 203 259 391 
Q 375 700 629 1000 
Q 884 1300 1366 1694 
Q 2113 2306 2375 2664 
Q 2638 3022 2638 3341 
Q 2638 3675 2398 3904 
Q 2159 4134 1775 4134 
Q 1369 4134 1125 3890 
Q 881 3647 878 3216 
L 300 3275 
Q 359 3922 746 4261 
Q 1134 4600 1788 4600 
Q 2447 4600 2831 4234 
Q 3216 3869 3216 3328 
Q 3216 3053 3103 2787 
Q 2991 2522 2730 2228 
Q 2469 1934 1863 1422 
Q 1356 997 1212 845 
Q 1069 694 975 541 
L 3222 541 
z
" transform="scale(0.015625)"/>
       </defs>
       <use xlink:href="#ArialMT-32"/>
       <use xlink:href="#ArialMT-30" transform="translate(55.615234 0)"/>
      </g>
     </g>
    </g>
    <g id="xtick_3">
     <g id="line2d_3">
      <g>
       <use xlink:href="#mbe264331b2" x="190.963636" y="256.32" style="fill: #262626; stroke: #262626"/>
      </g>
     </g>
     <g id="text_3">
      <!-- 40 -->
      <g style="fill: #262626" transform="translate(184.112561 273.438425) scale(0.1232 -0.1232)">
       <defs>
        <path id="ArialMT-34" d="M 2069 0 
L 2069 1097 
L 81 1097 
L 81 1613 
L 2172 4581 
L 2631 4581 
L 2631 1613 
L 3250 1613 
L 3250 1097 
L 2631 1097 
L 2631 0 
L 2069 0 
z
M 2069 1613 
L 2069 3678 
L 634 1613 
L 2069 1613 
z
" transform="scale(0.015625)"/>
       </defs>
       <use xlink:href="#ArialMT-34"/>
       <use xlink:href="#ArialMT-30" transform="translate(55.615234 0)"/>
      </g>
     </g>
    </g>
    <g id="xtick_4">
     <g id="line2d_4">
      <g>
       <use xlink:href="#mbe264331b2" x="251.836364" y="256.32" style="fill: #262626; stroke: #262626"/>
      </g>
     </g>
     <g id="text_4">
      <!-- 60 -->
      <g style="fill: #262626" transform="translate(244.985289 273.438425) scale(0.1232 -0.1232)">
       <defs>
        <path id="ArialMT-36" d="M 3184 3459 
L 2625 3416 
Q 2550 3747 2413 3897 
Q 2184 4138 1850 4138 
Q 1581 4138 1378 3988 
Q 1113 3794 959 3422 
Q 806 3050 800 2363 
Q 1003 2672 1297 2822 
Q 1591 2972 1913 2972 
Q 2475 2972 2870 2558 
Q 3266 2144 3266 1488 
Q 3266 1056 3080 686 
Q 2894 316 2569 119 
Q 2244 -78 1831 -78 
Q 1128 -78 684 439 
Q 241 956 241 2144 
Q 241 3472 731 4075 
Q 1159 4600 1884 4600 
Q 2425 4600 2770 4297 
Q 3116 3994 3184 3459 
z
M 888 1484 
Q 888 1194 1011 928 
Q 1134 663 1356 523 
Q 1578 384 1822 384 
Q 2178 384 2434 671 
Q 2691 959 2691 1453 
Q 2691 1928 2437 2201 
Q 2184 2475 1800 2475 
Q 1419 2475 1153 2201 
Q 888 1928 888 1484 
z
" transform="scale(0.015625)"/>
       </defs>
       <use xlink:href="#ArialMT-36"/>
       <use xlink:href="#ArialMT-30" transform="translate(55.615234 0)"/>
      </g>
     </g>
    </g>
    <g id="xtick_5">
     <g id="line2d_5">
      <g>
       <use xlink:href="#mbe264331b2" x="312.709091" y="256.32" style="fill: #262626; stroke: #262626"/>
      </g>
     </g>
     <g id="text_5">
      <!-- 80 -->
      <g style="fill: #262626" transform="translate(305.858016 273.438425) scale(0.1232 -0.1232)">
       <defs>
        <path id="ArialMT-38" d="M 1131 2484 
Q 781 2613 612 2850 
Q 444 3088 444 3419 
Q 444 3919 803 4259 
Q 1163 4600 1759 4600 
Q 2359 4600 2725 4251 
Q 3091 3903 3091 3403 
Q 3091 3084 2923 2848 
Q 2756 2613 2416 2484 
Q 2838 2347 3058 2040 
Q 3278 1734 3278 1309 
Q 3278 722 2862 322 
Q 2447 -78 1769 -78 
Q 1091 -78 675 323 
Q 259 725 259 1325 
Q 259 1772 486 2073 
Q 713 2375 1131 2484 
z
M 1019 3438 
Q 1019 3113 1228 2906 
Q 1438 2700 1772 2700 
Q 2097 2700 2305 2904 
Q 2513 3109 2513 3406 
Q 2513 3716 2298 3927 
Q 2084 4138 1766 4138 
Q 1444 4138 1231 3931 
Q 1019 3725 1019 3438 
z
M 838 1322 
Q 838 1081 952 856 
Q 1066 631 1291 507 
Q 1516 384 1775 384 
Q 2178 384 2440 643 
Q 2703 903 2703 1303 
Q 2703 1709 2433 1975 
Q 2163 2241 1756 2241 
Q 1359 2241 1098 1978 
Q 838 1716 838 1322 
z
" transform="scale(0.015625)"/>
       </defs>
       <use xlink:href="#ArialMT-38"/>
       <use xlink:href="#ArialMT-30" transform="translate(55.615234 0)"/>
      </g>
     </g>
    </g>
    <g id="xtick_6">
     <g id="line2d_6">
      <g>
       <use xlink:href="#mbe264331b2" x="373.581818" y="256.32" style="fill: #262626; stroke: #262626"/>
      </g>
     </g>
     <g id="text_6">
      <!-- 100 -->
      <g style="fill: #262626" transform="translate(363.305206 273.438425) scale(0.1232 -0.1232)">
       <defs>
        <path id="ArialMT-31" d="M 2384 0 
L 1822 0 
L 1822 3584 
Q 1619 3391 1289 3197 
Q 959 3003 697 2906 
L 697 3450 
Q 1169 3672 1522 3987 
Q 1875 4303 2022 4600 
L 2384 4600 
L 2384 0 
z
" transform="scale(0.015625)"/>
       </defs>
       <use xlink:href="#ArialMT-31"/>
       <use xlink:href="#ArialMT-30" transform="translate(55.615234 0)"/>
       <use xlink:href="#ArialMT-30" transform="translate(111.230469 0)"/>
      </g>
     </g>
    </g>
   </g>
   <g id="matplotlib.axis_2">
    <g id="ytick_1">
     <g id="line2d_7">
      <defs>
       <path id="m45d79a1843" d="M 0 0 
L -4.8 0 
" style="stroke: #262626"/>
      </defs>
      <g>
       <use xlink:href="#m45d79a1843" x="54" y="251.61789" style="fill: #262626; stroke: #262626"/>
      </g>
     </g>
     <g id="text_7">
      <!-- −1 -->
      <g style="fill: #262626" transform="translate(31.653275 256.027103) scale(0.1232 -0.1232)">
       <defs>
        <path id="ArialMT-2212" d="M 3381 1997 
L 356 1997 
L 356 2522 
L 3381 2522 
L 3381 1997 
z
" transform="scale(0.015625)"/>
       </defs>
       <use xlink:href="#ArialMT-2212"/>
       <use xlink:href="#ArialMT-31" transform="translate(58.398438 0)"/>
      </g>
     </g>
    </g>
    <g id="ytick_2">
     <g id="line2d_8">
      <g>
       <use xlink:href="#m45d79a1843" x="54" y="199.115684" style="fill: #262626; stroke: #262626"/>
      </g>
     </g>
     <g id="text_8">
      <!-- 0 -->
      <g style="fill: #262626" transform="translate(38.848925 203.524896) scale(0.1232 -0.1232)">
       <use xlink:href="#ArialMT-30"/>
      </g>
     </g>
    </g>
    <g id="ytick_3">
     <g id="line2d_9">
      <g>
       <use xlink:href="#m45d79a1843" x="54" y="146.613477" style="fill: #262626; stroke: #262626"/>
      </g>
     </g>
     <g id="text_9">
      <!-- 1 -->
      <g style="fill: #262626" transform="translate(38.848925 151.02269) scale(0.1232 -0.1232)">
       <use xlink:href="#ArialMT-31"/>
      </g>
     </g>
    </g>
    <g id="ytick_4">
     <g id="line2d_10">
      <g>
       <use xlink:href="#m45d79a1843" x="54" y="94.111271" style="fill: #262626; stroke: #262626"/>
      </g>
     </g>
     <g id="text_10">
      <!-- 2 -->
      <g style="fill: #262626" transform="translate(38.848925 98.520483) scale(0.1232 -0.1232)">
       <use xlink:href="#ArialMT-32"/>
      </g>
     </g>
    </g>
    <g id="ytick_5">
     <g id="line2d_11">
      <g>
       <use xlink:href="#m45d79a1843" x="54" y="41.609064" style="fill: #262626; stroke: #262626"/>
      </g>
     </g>
     <g id="text_11">
      <!-- 3 -->
      <g style="fill: #262626" transform="translate(38.848925 46.018277) scale(0.1232 -0.1232)">
       <defs>
        <path id="ArialMT-33" d="M 269 1209 
L 831 1284 
Q 928 806 1161 595 
Q 1394 384 1728 384 
Q 2125 384 2398 659 
Q 2672 934 2672 1341 
Q 2672 1728 2419 1979 
Q 2166 2231 1775 2231 
Q 1616 2231 1378 2169 
L 1441 2663 
Q 1497 2656 1531 2656 
Q 1891 2656 2178 2843 
Q 2466 3031 2466 3422 
Q 2466 3731 2256 3934 
Q 2047 4138 1716 4138 
Q 1388 4138 1169 3931 
Q 950 3725 888 3313 
L 325 3413 
Q 428 3978 793 4289 
Q 1159 4600 1703 4600 
Q 2078 4600 2393 4439 
Q 2709 4278 2876 4000 
Q 3044 3722 3044 3409 
Q 3044 3113 2884 2869 
Q 2725 2625 2413 2481 
Q 2819 2388 3044 2092 
Q 3269 1797 3269 1353 
Q 3269 753 2831 336 
Q 2394 -81 1725 -81 
Q 1122 -81 723 278 
Q 325 638 269 1209 
z
" transform="scale(0.015625)"/>
       </defs>
       <use xlink:href="#ArialMT-33"/>
      </g>
     </g>
    </g>
   </g>
   <g id="line2d_12">
    <path d="M 69.218182 194.12728 
L 69.613894 190.013996 
L 71.074986 171.771491 
L 72.262123 158.89606 
L 72.779593 155.32611 
L 73.266623 153.355986 
L 73.814532 151.889441 
L 74.118926 151.488916 
L 74.484199 151.259398 
L 74.605957 151.365875 
L 74.819033 151.89473 
L 75.184306 153.571516 
L 75.732215 157.053382 
L 76.432321 164.276132 
L 77.680337 180.230584 
L 79.628459 211.489591 
L 81.333066 234.26259 
L 81.880975 238.805879 
L 82.459324 242.323535 
L 83.250749 245.999174 
L 83.524703 246.230377 
L 83.646461 246.071568 
L 83.950855 245.291729 
L 84.529204 242.420711 
L 85.016234 237.704956 
L 85.472825 231.318583 
L 86.020735 220.252983 
L 86.568644 204.406542 
L 87.086114 182.313982 
L 87.664463 146.52064 
L 88.242812 118.276187 
L 88.912479 97.168914 
L 89.734343 78.201889 
L 90.556207 64.296514 
L 91.438949 53.506424 
L 91.92598 49.734066 
L 92.595647 46.645998 
L 92.869602 46.067134 
L 93.143556 45.875531 
L 93.356632 46.030598 
L 93.752344 46.693092 
L 93.96542 47.457048 
L 94.604648 51.537453 
L 95.304754 57.475779 
L 96.187497 68.105019 
L 98.044301 95.07272 
L 99.718468 120.661907 
L 100.722969 132.458731 
L 101.483954 138.925044 
L 101.910106 140.898139 
L 102.366697 142.136095 
L 102.610212 142.360574 
L 102.762409 142.304467 
L 103.249439 141.847359 
L 103.553834 140.972899 
L 104.162622 138.214172 
L 104.619213 134.372106 
L 105.441077 125.666341 
L 106.597774 109.632787 
L 107.389199 96.524769 
L 108.302381 82.348168 
L 110.524458 53.458898 
L 111.163685 49.276023 
L 111.589837 47.63025 
L 111.985549 46.831421 
L 112.411701 46.732927 
L 112.685656 47.352739 
L 113.020489 48.671829 
L 113.811914 53.211274 
L 114.298944 56.954413 
L 114.907733 63.981357 
L 117.160249 96.777723 
L 118.864856 122.179703 
L 119.504083 129.464041 
L 120.630341 139.06783 
L 121.147811 141.180499 
L 121.69572 142.195434 
L 121.878357 142.211131 
L 122.060993 141.911389 
L 122.334948 141.125892 
L 122.73066 139.131243 
L 123.24813 135.489066 
L 123.917797 129.803064 
L 124.80054 119.467412 
L 125.744162 106.150333 
L 127.87492 74.55741 
L 129.153375 58.403237 
L 129.762163 52.917355 
L 130.614467 47.300042 
L 131.010179 46.459859 
L 131.223255 46.302735 
L 131.375452 46.569904 
L 131.862483 48.14172 
L 132.440831 50.717327 
L 133.201817 55.858389 
L 133.749726 61.378171 
L 134.754226 73.308784 
L 135.697848 87.210421 
L 138.224319 124.513955 
L 139.441895 136.278759 
L 139.928926 139.031321 
L 140.415956 140.9053 
L 140.689911 141.3792 
L 140.842108 141.292711 
L 141.511775 140.491793 
L 141.846608 139.234841 
L 142.303199 136.689018 
L 143.612094 125.180222 
L 144.647034 110.970492 
L 148.208444 58.329943 
L 148.999869 50.690105 
L 149.517339 47.091883 
L 149.821733 46.377396 
L 150.460961 45.768101 
L 150.704476 46.087758 
L 151.069749 47.154066 
L 151.404582 48.601324 
L 151.922052 51.976931 
L 153.04831 61.570642 
L 153.657098 68.745125 
L 154.692038 84.438184 
L 156.944554 119.778723 
L 157.979494 132.17229 
L 159.014434 140.595396 
L 159.501465 142.31403 
L 159.74498 142.55589 
L 159.958056 142.462675 
L 160.23201 142.106119 
L 160.719041 140.536697 
L 161.114753 138.398166 
L 162.119254 130.283678 
L 163.123754 118.450992 
L 163.976058 107.136107 
L 166.715604 66.423956 
L 167.385271 59.584697 
L 168.328893 53.027279 
L 169.698666 46.178332 
L 169.972621 45.808154 
L 170.216136 46.057349 
L 170.459651 46.846941 
L 170.733606 48.227024 
L 171.281515 52.279491 
L 171.798985 57.67489 
L 173.320956 77.254326 
L 176.364896 121.985056 
L 177.369397 132.505233 
L 178.039064 137.884249 
L 178.465216 139.619065 
L 178.891367 140.170652 
L 179.074004 140.21432 
L 179.28708 140.216363 
L 179.591474 140.28434 
L 179.956747 139.64647 
L 180.261141 138.360474 
L 180.748171 135.269154 
L 181.356959 129.756984 
L 182.057066 121.867412 
L 183.122445 107.895167 
L 186.98825 53.483918 
L 187.749235 47.984388 
L 188.205826 46.484671 
L 188.51022 46.085318 
L 188.784175 46.040465 
L 189.02769 46.12905 
L 189.301645 46.719881 
L 189.697357 48.244321 
L 190.123509 50.971527 
L 190.975812 57.504474 
L 191.980313 69.525641 
L 192.771737 81.312982 
L 195.72436 125.975581 
L 196.7593 136.724961 
L 197.428967 141.410969 
L 197.7638 142.596321 
L 198.037755 142.995751 
L 198.220391 143.033695 
L 198.676982 142.2809 
L 199.011816 141.072976 
L 199.559725 138.056329 
L 200.35115 132.083489 
L 200.899059 126.505304 
L 201.720923 115.741135 
L 203.121136 94.215634 
L 205.46497 60.663431 
L 206.378152 51.850049 
L 206.926062 48.04195 
L 207.413092 46.740364 
L 207.991441 46.405263 
L 208.356714 46.883297 
L 208.691547 48.045566 
L 209.117699 50.579884 
L 209.787366 55.812524 
L 210.639669 65.230422 
L 211.522412 76.800925 
L 214.261959 117.443211 
L 215.053384 127.787755 
L 216.118763 138.556434 
L 216.697112 142.017776 
L 217.031945 143.145661 
L 217.245021 143.298761 
L 217.397218 143.232742 
L 217.732051 142.581107 
L 218.158203 141.188526 
L 218.82787 137.295528 
L 219.34534 132.482262 
L 220.288962 120.865986 
L 222.876311 82.348741 
L 224.093888 65.751934 
L 224.854873 57.78824 
L 225.707176 50.912718 
L 226.681237 45.375663 
L 226.924752 44.740897 
L 227.168268 44.642849 
L 227.381344 44.74615 
L 227.56398 45.095354 
L 227.959692 46.650005 
L 228.264086 48.622534 
L 228.872875 54.792281 
L 230.729678 78.899526 
L 233.621422 123.871442 
L 234.443286 132.632676 
L 235.29559 139.66394 
L 235.691302 141.938233 
L 236.208772 143.369402 
L 236.391408 143.47726 
L 236.634923 143.277452 
L 236.878439 142.53823 
L 237.456787 140.591285 
L 237.943818 137.820717 
L 238.430849 134.254485 
L 239.191834 126.09319 
L 240.044137 114.912784 
L 241.687865 89.616787 
L 243.909942 57.820145 
L 244.488291 52.727157 
L 245.188397 48.342542 
L 245.523231 47.288523 
L 245.736306 47.078412 
L 246.132019 46.940189 
L 246.405973 46.935248 
L 246.55817 47.218422 
L 247.045201 48.689565 
L 247.380034 50.344412 
L 248.080141 56.229261 
L 249.054202 67.37365 
L 250.606612 90.692983 
L 252.25034 114.269626 
L 253.741871 132.550738 
L 254.350659 137.051572 
L 254.77681 139.02837 
L 255.537796 140.785995 
L 255.750871 140.914895 
L 255.994387 140.699805 
L 256.481417 139.501735 
L 256.816251 138.095566 
L 257.151084 135.815833 
L 258.094706 126.586301 
L 258.88613 117.331417 
L 259.981949 101.257857 
L 262.50842 63.656687 
L 263.330284 55.623916 
L 263.939072 51.710049 
L 264.5783 48.919567 
L 265.217527 47.417648 
L 265.552361 46.988511 
L 265.704558 46.983244 
L 265.978512 47.447723 
L 266.313346 48.805426 
L 266.891695 52.547451 
L 267.439604 57.819471 
L 268.778938 74.495996 
L 272.157712 122.447109 
L 273.070894 132.292455 
L 273.892758 138.088927 
L 274.440668 141.069011 
L 274.714622 141.586457 
L 275.110335 141.699827 
L 275.506047 140.878509 
L 275.84088 139.463827 
L 276.449669 135.596416 
L 277.42373 125.347058 
L 278.489109 111.599153 
L 279.737125 91.898675 
L 281.259095 68.637481 
L 282.172277 58.297734 
L 283.146338 49.913541 
L 283.755126 47.145089 
L 284.029081 46.562044 
L 284.516112 46.555824 
L 284.790066 47.08325 
L 285.185779 48.272052 
L 285.794567 51.568405 
L 286.433794 56.24966 
L 287.255658 65.547664 
L 288.138401 78.533177 
L 290.603993 115.584215 
L 291.638933 128.793819 
L 292.278161 134.77621 
L 292.734752 137.851411 
L 293.221782 139.865358 
L 293.587055 140.575843 
L 293.921889 140.648896 
L 294.287161 140.329429 
L 294.591556 139.480022 
L 295.169904 136.398469 
L 295.687374 132.315575 
L 296.691875 122.30385 
L 298.213845 101.482701 
L 301.075149 60.780265 
L 302.201407 49.458697 
L 302.779756 46.305824 
L 303.11459 45.183116 
L 303.297226 45.047637 
L 303.479863 45.205834 
L 303.875575 45.984671 
L 304.332166 47.687685 
L 304.606121 49.425898 
L 305.732379 58.477997 
L 306.462924 66.468436 
L 307.376107 79.343928 
L 309.78082 117.288279 
L 310.572244 127.997752 
L 311.241911 134.701585 
L 311.881139 139.05607 
L 312.276851 140.524357 
L 312.824761 141.684545 
L 313.098715 141.623559 
L 313.311791 141.337945 
L 313.616185 140.692299 
L 313.829261 139.953135 
L 314.37717 137.141403 
L 315.168595 131.309522 
L 315.777383 125.231156 
L 316.934081 109.430336 
L 318.151657 89.249712 
L 319.52143 69.387898 
L 320.739007 56.337148 
L 321.499992 50.568585 
L 321.987022 48.337839 
L 322.413174 47.520602 
L 323.052402 47.519282 
L 323.356796 47.859042 
L 323.569872 48.387955 
L 323.965584 50.395905 
L 324.574372 55.170066 
L 325.639751 67.202368 
L 326.431176 77.852158 
L 329.231601 120.951126 
L 330.296981 133.556326 
L 331.027526 139.319198 
L 331.636315 142.34417 
L 331.87983 142.769978 
L 332.123345 142.714757 
L 332.36686 142.460654 
L 332.853891 141.13521 
L 333.43224 138.365831 
L 334.162785 132.044122 
L 334.862892 122.690733 
L 335.95871 108.143312 
L 337.054529 92.878117 
L 339.398363 59.457121 
L 340.159349 52.565127 
L 340.798576 49.116627 
L 341.194289 47.968319 
L 341.590001 47.53729 
L 341.863955 47.47348 
L 342.046592 47.696131 
L 342.290107 48.239712 
L 342.594501 49.551739 
L 343.111971 52.939036 
L 344.542623 65.736158 
L 345.364487 76.037797 
L 348.591065 123.580436 
L 349.83908 137.794336 
L 350.326111 141.302657 
L 350.691384 142.4181 
L 351.300172 143.654422 
L 351.482808 143.608458 
L 351.756763 143.012425 
L 352.061157 141.801635 
L 352.578627 138.521939 
L 353.400491 131.511393 
L 354.009279 125.419732 
L 355.135537 109.85499 
L 357.327175 75.936839 
L 358.179478 64.596073 
L 359.062221 55.241462 
L 359.671009 51.755422 
L 360.462434 48.534907 
L 360.888585 47.78881 
L 361.101661 47.704942 
L 361.375616 47.878574 
L 361.588692 48.214434 
L 361.893086 49.534627 
L 362.380116 52.381034 
L 363.110662 58.374444 
L 364.115162 70.138247 
L 364.876148 81.557528 
L 367.889649 127.697322 
L 368.498437 134.072653 
L 369.168104 139.086331 
L 369.837771 142.346887 
L 370.294362 143.336102 
L 370.537877 143.500792 
L 370.811832 143.343968 
L 371.085787 142.72292 
L 371.390181 141.415543 
L 371.846772 139.575102 
L 373.064348 134.287846 
L 373.338303 133.888893 
L 373.520939 133.876248 
L 373.581818 133.953164 
L 373.581818 133.953164 
" clip-path="url(#p1ba350a4fc)" style="fill: none; stroke: #1a2441; stroke-width: 1.5; stroke-linecap: round"/>
   </g>
   <g id="patch_3">
    <path d="M 54 256.32 
L 54 34.56 
" style="fill: none; stroke: #262626; stroke-linejoin: miter; stroke-linecap: square"/>
   </g>
   <g id="patch_4">
    <path d="M 388.8 256.32 
L 388.8 34.56 
" style="fill: none; stroke: #262626; stroke-linejoin: miter; stroke-linecap: square"/>
   </g>
   <g id="patch_5">
    <path d="M 54 256.32 
L 388.8 256.32 
" style="fill: none; stroke: #262626; stroke-linejoin: miter; stroke-linecap: square"/>
   </g>
   <g id="patch_6">
    <path d="M 54 34.56 
L 388.8 34.56 
" style="fill: none; stroke: #262626; stroke-linejoin: miter; stroke-linecap: square"/>
   </g>
  </g>
 </g>
 <defs>
  <clipPath id="p1ba350a4fc">
   <rect x="54" y="34.56" width="334.8" height="221.76"/>
  </clipPath>
 </defs>
</svg>
