<svg class="main-svg" xmlns="http://www.w3.org/2000/svg" xmlns:xlink="http://www.w3.org/1999/xlink" width="700" height="500" style="" viewBox="0 0 700 500"><rect x="0" y="0" width="700" height="500" style="fill: rgb(255, 255, 255); fill-opacity: 1;"/><defs id="defs-4015be"><g class="clips"><clipPath id="clip4015bexyplot" class="plotclip"><rect width="540" height="320"/></clipPath><clipPath class="axesclip" id="clip4015bex"><rect x="80" y="0" width="540" height="500"/></clipPath><clipPath class="axesclip" id="clip4015bey"><rect x="0" y="100" width="700" height="320"/></clipPath><clipPath class="axesclip" id="clip4015bexy"><rect x="80" y="100" width="540" height="320"/></clipPath></g><g class="gradients"/><g class="patterns"/></defs><g class="bglayer"/><g class="layer-below"><g class="imagelayer"/><g class="shapelayer"/></g><g class="cartesianlayer"><g class="subplot xy"><g class="layer-subplot"><g class="shapelayer"/><g class="imagelayer"/></g><g class="minor-gridlayer"><g class="x"/><g class="y"/></g><g class="gridlayer"><g class="x"><path class="xgrid crisp" transform="translate(188,0)" d="M0,100v320" style="stroke: rgb(255, 255, 255); stroke-opacity: 1; stroke-width: 1px;"/><path class="xgrid crisp" transform="translate(296,0)" d="M0,100v320" style="stroke: rgb(255, 255, 255); stroke-opacity: 1; stroke-width: 1px;"/><path class="xgrid crisp" transform="translate(404,0)" d="M0,100v320" style="stroke: rgb(255, 255, 255); stroke-opacity: 1; stroke-width: 1px;"/><path class="xgrid crisp" transform="translate(512,0)" d="M0,100v320" style="stroke: rgb(255, 255, 255); stroke-opacity: 1; stroke-width: 1px;"/></g><g class="y"><path class="ygrid crisp" transform="translate(0,411.68)" d="M80,0h540" style="stroke: rgb(255, 255, 255); stroke-opacity: 1; stroke-width: 1px;"/><path class="ygrid crisp" transform="translate(0,374.18)" d="M80,0h540" style="stroke: rgb(255, 255, 255); stroke-opacity: 1; stroke-width: 1px;"/><path class="ygrid crisp" transform="translate(0,299.18)" d="M80,0h540" style="stroke: rgb(255, 255, 255); stroke-opacity: 1; stroke-width: 1px;"/><path class="ygrid crisp" transform="translate(0,261.68)" d="M80,0h540" style="stroke: rgb(255, 255, 255); stroke-opacity: 1; stroke-width: 1px;"/><path class="ygrid crisp" transform="translate(0,224.17000000000002)" d="M80,0h540" style="stroke: rgb(255, 255, 255); stroke-opacity: 1; stroke-width: 1px;"/><path class="ygrid crisp" transform="translate(0,186.67000000000002)" d="M80,0h540" style="stroke: rgb(255, 255, 255); stroke-opacity: 1; stroke-width: 1px;"/><path class="ygrid crisp" transform="translate(0,149.17000000000002)" d="M80,0h540" style="stroke: rgb(255, 255, 255); stroke-opacity: 1; stroke-width: 1px;"/><path class="ygrid crisp" transform="translate(0,111.67)" d="M80,0h540" style="stroke: rgb(255, 255, 255); stroke-opacity: 1; stroke-width: 1px;"/></g></g><g class="zerolinelayer"><path class="yzl zl crisp" transform="translate(0,336.68)" d="M80,0h540" style="stroke: rgb(255, 255, 255); stroke-opacity: 1; stroke-width: 2px;"/></g><g class="layer-between"><g class="shapelayer"/><g class="imagelayer"/></g><path class="xlines-below"/><path class="ylines-below"/><g class="overlines-below"/><g class="xaxislayer-below"/><g class="yaxislayer-below"/><g class="overaxes-below"/><g class="overplot"><g class="xy" transform="translate(80,100)" clip-path="url(#clip4015bexyplot)"><g class="scatterlayer mlayer"><g class="trace scatter trace96730d" style="stroke-miterlimit: 2; opacity: 1;"><g class="fills"/><g class="errorbars"/><g class="lines"><path class="js-line" d="M0,229.55L2.27,207.83L2.32,207.29L6.75,172.59L6.8,172.43L8.96,168.42L9.02,168.38L9.77,168.81L9.83,168.93L11.23,174.61L11.29,174.9L13.34,191.71L13.39,192.2L15.45,215.8L15.5,216.56L19.6,268.21L19.66,268.85L22.25,292.12L22.3,292.44L25.11,303.91L25.17,303.96L25.81,303.4L25.87,303.3L27.06,299.12L27.11,298.85L28.68,284.8L28.73,284.1L30.73,245.75L30.78,244.24L32.19,190.13L32.24,187.3L34.89,92.23L34.94,91.04L38.4,38.11L38.45,37.54L40.94,20.63L40.99,20.46L42.5,17.78L42.56,17.79L43.69,19.29L43.74,19.44L44.99,25.52L45.04,25.85L47.58,46.6L47.63,47.18L51.2,88.76L51.25,89.47L56.54,146.54L56.6,146.92L58.38,154.51L58.43,154.64L59.35,155.61L59.62,155.46L59.68,155.44L60.65,154.38L60.7,154.25L62.16,148.74L62.21,148.4L64.05,133.85L64.1,133.34L66.64,104.79L66.7,104.08L71.88,41.13L71.94,40.55L74.15,23.79L74.2,23.55L76.04,19.08L76.09,19.06L76.9,19.45L76.96,19.55L78.04,23.05L78.09,23.26L79.93,33.18L79.98,33.59L81.82,52.13L81.87,52.69L84.68,85.77L84.73,86.43L90.84,149.12L90.89,149.41L92.94,155.2L93,155.26L93.48,155.35L93.75,154.96L93.81,154.87L94.89,151.23L94.94,150.99L96.78,139.82L96.83,139.42L98.94,119.48L98.99,118.89L102.72,74.98L102.77,74.29L107.63,26.54L107.69,26.22L109.63,18.6L109.68,18.52L110.12,18.48L110.33,18.87L110.39,19L112.33,25.43L112.39,25.68L114.33,38.47L114.38,38.95L117.08,66.43L117.14,67.1L122.86,133.73L122.92,134.18L125.35,150.42L125.4,150.63L126.91,154.19L126.97,154.16L127.02,154.12L128.53,152.28L128.59,152.13L130.64,141.63L130.69,141.27L132.53,125.45L132.58,124.88L135.77,86.91L135.82,86.27L142.3,20.13L142.36,19.89L143.6,17.79L143.65,17.73L144.52,17.99L144.57,18.07L145.87,21.89L145.92,22.13L147.33,30.11L147.38,30.43L149.86,51.03L149.92,51.62L158.72,150.06L158.78,150.41L160.34,155.77L160.4,155.82L161.37,155.41L161.42,155.33L162.83,151.08L162.88,150.81L165.31,133.83L165.36,133.3L168.6,98.84L168.66,98.13L173.2,45.09L173.25,44.61L175.73,28.47L175.79,28.22L178.7,17.66L178.76,17.67L179.51,18.87L179.57,19.01L180.65,24.07L180.7,24.4L182.21,36.7L182.27,37.25L192.64,146.94L192.69,147.27L194.42,152.32L194.47,152.37L195.88,152.58L195.93,152.51L196.9,150.33L196.96,150.11L198.85,138.48L198.9,138.03L201.17,116.34L201.22,115.77L204.14,81.06L204.19,80.38L209.86,22.9L209.92,22.58L211.38,18.22L211.43,18.17L212.73,18.35L212.78,18.44L213.86,21.6L213.92,21.85L216.62,39.66L216.67,40.15L220.45,85.16L220.5,85.89L226.23,147.2L226.28,147.55L228.44,156.44L228.5,156.47L229.25,156.11L229.31,156.04L230.28,153.76L230.33,153.56L232.01,145.08L232.06,144.76L233.74,131.94L233.79,131.42L238.6,73.9L238.65,73.22L242.21,34.81L242.27,34.37L244.64,20.12L244.7,20L246.1,18.46L246.16,18.49L247.29,20.32L247.34,20.5L248.59,26.6L248.64,26.93L251.34,49.51L251.4,50.04L257.07,116.66L257.12,117.33L259.87,144.87L259.93,145.31L261.98,156.2L262.03,156.33L262.79,156.94L263.01,156.71L263.06,156.61L264.3,153.71L264.36,153.49L266.25,142.43L266.3,141.96L270.68,94.06L270.73,93.44L276.13,34.78L276.18,34.38L279.42,16.86L279.48,16.68L280.34,16.01L280.45,16.06L280.5,16.09L281.21,17.36L281.26,17.53L282.83,26.55L282.88,27.01L287.69,80.12L287.74,80.85L292.22,134.1L292.28,134.56L295.09,153.97L295.14,154.19L296.54,157.2L296.6,157.2L297.41,155.99L297.46,155.85L298.92,151.09L298.97,150.85L300.43,142.29L300.49,141.85L303.67,108.19L303.73,107.46L307.88,57.1L307.94,56.48L310.96,27.55L311.02,27.23L313.07,19.49L313.12,19.49L314.74,19.89L314.8,19.99L315.93,23.32L315.99,23.57L318.36,40.97L318.42,41.51L328.35,147.46L328.41,147.74L330.03,152.56L330.08,152.66L331.22,153.44L331.38,153.23L331.43,153.14L332.78,149.73L332.84,149.51L334.4,138.88L334.46,138.43L338.56,95.53L338.61,94.84L344.61,30.4L344.66,30.1L347.25,20.69L347.31,20.61L348.6,19.35L348.87,19.62L348.93,19.69L349.95,23.15L350.01,23.41L351.95,37.38L352.01,37.89L359.3,119.24L359.35,119.86L362.81,147.67L362.86,147.98L364.91,154.77L364.97,154.8L365.72,154.11L365.78,154.01L367.13,149.04L367.18,148.77L368.42,139.84L368.48,139.37L373.12,88.59L373.18,87.82L376.9,43.59L376.96,43.1L379.82,22.34L379.87,22.13L381.66,18.6L381.71,18.59L382.57,19.71L382.63,19.83L383.87,24.09L383.92,24.34L385.6,34.37L385.65,34.82L387.7,55.73L387.76,56.36L394.67,136.71L394.73,137.18L396.99,150.88L397.05,151.06L398.45,153.18L398.51,153.18L399.53,152.32L399.59,152.21L400.83,147.36L400.88,147.08L402.5,135.99L402.56,135.6L405.8,103.21L405.85,102.54L411.25,40.04L411.31,39.54L414.11,19.62L414.17,19.36L415.3,16.58L415.41,16.62L415.46,16.65L416.6,18.68L416.65,18.85L418.06,25.31L418.11,25.62L421.19,49.93L421.24,50.48L423.73,79.68L423.78,80.36L429.07,142.51L429.13,142.89L431.23,152.98L431.29,153.09L432.53,154.64L432.75,154.51L432.8,154.47L434.04,151.97L434.1,151.78L436.36,139.81L436.42,139.44L439.06,113.75L439.12,113.11L445.92,35.12L445.98,34.72L448.3,21.67L448.35,21.54L449.76,20.1L449.81,20.08L450.73,20.4L450.78,20.47L451.59,22.5L451.65,22.73L453.54,35.21L453.59,35.69L456.4,64.14L456.45,64.85L463.85,147.61L463.91,147.97L465.85,156.07L465.9,156.12L466.82,155.83L466.88,155.74L468.55,151.08L468.6,150.81L470.23,139.31L470.28,138.77L481.13,25.03L481.19,24.77L482.86,20.35L482.92,20.29L484.05,20.37L484.1,20.43L484.97,22.79L485.02,23.02L486.64,32.16L486.7,32.47L489.29,53.67L489.34,54.22L491.94,85.45L491.99,86.15L496.09,133.08L496.15,133.61L498.9,154.62L498.96,154.77L500.74,157.43L500.79,157.38L500.85,157.32L502.09,153.61L502.14,153.36L503.65,143.92L503.71,143.53L506.68,115.78L506.73,115.18L509.7,78.65L509.76,77.96L513.54,36.14L513.59,35.67L515.91,23.92L515.97,23.72L517.53,20.45L517.59,20.41L518.61,20.9L518.67,20.99L519.86,25.57L519.91,25.85L522.45,44.86L522.5,45.39L524.99,74.34L525.04,75.06L529.79,133.61L529.85,134.13L532.22,151.18L532.28,151.43L534.01,156.72L534.06,156.82L534.92,157.16L535.03,157.07L535.09,157.01L536.11,154.25L536.17,154.02L539.24,143.81L539.3,143.74L539.95,143.53L540,143.59" style="vector-effect: none; fill: none; stroke: rgb(0, 0, 0); stroke-opacity: 1; stroke-width: 2px; opacity: 1;"/></g><g class="points"/><g class="text"/></g></g></g></g><path class="xlines-above crisp" d="M79,420.5H621M79,99.5H621" style="fill: none; stroke-width: 1px; stroke: rgb(0, 0, 0); stroke-opacity: 1;"/><path class="ylines-above crisp" d="M79.5,100V420M620.5,100V420" style="fill: none; stroke-width: 1px; stroke: rgb(0, 0, 0); stroke-opacity: 1;"/><g class="overlines-above"/><g class="xaxislayer-above"><path class="xtick ticks crisp" d="M0,421v5" transform="translate(80,0)" style="stroke: rgb(68, 68, 68); stroke-opacity: 1; stroke-width: 1px;"/><path class="xtick ticks crisp" d="M0,421v5" transform="translate(188,0)" style="stroke: rgb(68, 68, 68); stroke-opacity: 1; stroke-width: 1px;"/><path class="xtick ticks crisp" d="M0,421v5" transform="translate(296,0)" style="stroke: rgb(68, 68, 68); stroke-opacity: 1; stroke-width: 1px;"/><path class="xtick ticks crisp" d="M0,421v5" transform="translate(404,0)" style="stroke: rgb(68, 68, 68); stroke-opacity: 1; stroke-width: 1px;"/><path class="xtick ticks crisp" d="M0,421v5" transform="translate(512,0)" style="stroke: rgb(68, 68, 68); stroke-opacity: 1; stroke-width: 1px;"/><path class="xtick ticks crisp" d="M0,421v5" transform="translate(620,0)" style="stroke: rgb(68, 68, 68); stroke-opacity: 1; stroke-width: 1px;"/><g class="xtick"><text text-anchor="middle" x="0" y="440.4" transform="translate(80,0)" style="font-family: 'Open Sans', verdana, arial, sans-serif; font-size: 12px; fill: rgb(42, 63, 95); fill-opacity: 1; white-space: pre; opacity: 1;">0</text></g><g class="xtick"><text text-anchor="middle" x="0" y="440.4" style="font-family: 'Open Sans', verdana, arial, sans-serif; font-size: 12px; fill: rgb(42, 63, 95); fill-opacity: 1; white-space: pre; opacity: 1;" transform="translate(188,0)">20</text></g><g class="xtick"><text text-anchor="middle" x="0" y="440.4" style="font-family: 'Open Sans', verdana, arial, sans-serif; font-size: 12px; fill: rgb(42, 63, 95); fill-opacity: 1; white-space: pre; opacity: 1;" transform="translate(296,0)">40</text></g><g class="xtick"><text text-anchor="middle" x="0" y="440.4" style="font-family: 'Open Sans', verdana, arial, sans-serif; font-size: 12px; fill: rgb(42, 63, 95); fill-opacity: 1; white-space: pre; opacity: 1;" transform="translate(404,0)">60</text></g><g class="xtick"><text text-anchor="middle" x="0" y="440.4" style="font-family: 'Open Sans', verdana, arial, sans-serif; font-size: 12px; fill: rgb(42, 63, 95); fill-opacity: 1; white-space: pre; opacity: 1;" transform="translate(512,0)">80</text></g><g class="xtick"><text text-anchor="middle" x="0" y="440.4" style="font-family: 'Open Sans', verdana, arial, sans-serif; font-size: 12px; fill: rgb(42, 63, 95); fill-opacity: 1; white-space: pre; opacity: 1;" transform="translate(620,0)">100</text></g></g><g class="yaxislayer-above"><path class="ytick ticks crisp" d="M79,0h-5" transform="translate(0,411.68)" style="stroke: rgb(68, 68, 68); stroke-opacity: 1; stroke-width: 1px;"/><path class="ytick ticks crisp" d="M79,0h-5" transform="translate(0,374.18)" style="stroke: rgb(68, 68, 68); stroke-opacity: 1; stroke-width: 1px;"/><path class="ytick ticks crisp" d="M79,0h-5" transform="translate(0,336.68)" style="stroke: rgb(68, 68, 68); stroke-opacity: 1; stroke-width: 1px;"/><path class="ytick ticks crisp" d="M79,0h-5" transform="translate(0,299.18)" style="stroke: rgb(68, 68, 68); stroke-opacity: 1; stroke-width: 1px;"/><path class="ytick ticks crisp" d="M79,0h-5" transform="translate(0,261.68)" style="stroke: rgb(68, 68, 68); stroke-opacity: 1; stroke-width: 1px;"/><path class="ytick ticks crisp" d="M79,0h-5" transform="translate(0,224.17000000000002)" style="stroke: rgb(68, 68, 68); stroke-opacity: 1; stroke-width: 1px;"/><path class="ytick ticks crisp" d="M79,0h-5" transform="translate(0,186.67000000000002)" style="stroke: rgb(68, 68, 68); stroke-opacity: 1; stroke-width: 1px;"/><path class="ytick ticks crisp" d="M79,0h-5" transform="translate(0,149.17000000000002)" style="stroke: rgb(68, 68, 68); stroke-opacity: 1; stroke-width: 1px;"/><path class="ytick ticks crisp" d="M79,0h-5" transform="translate(0,111.67)" style="stroke: rgb(68, 68, 68); stroke-opacity: 1; stroke-width: 1px;"/><g class="ytick"><text text-anchor="end" x="71.6" y="4.199999999999999" transform="translate(0,411.68)" style="font-family: 'Open Sans', verdana, arial, sans-serif; font-size: 12px; fill: rgb(42, 63, 95); fill-opacity: 1; white-space: pre; opacity: 1;">−1</text></g><g class="ytick"><text text-anchor="end" x="71.6" y="4.199999999999999" style="font-family: 'Open Sans', verdana, arial, sans-serif; font-size: 12px; fill: rgb(42, 63, 95); fill-opacity: 1; white-space: pre; opacity: 1;" transform="translate(0,374.18)">−0.5</text></g><g class="ytick"><text text-anchor="end" x="71.6" y="4.199999999999999" style="font-family: 'Open Sans', verdana, arial, sans-serif; font-size: 12px; fill: rgb(42, 63, 95); fill-opacity: 1; white-space: pre; opacity: 1;" transform="translate(0,336.68)">0</text></g><g class="ytick"><text text-anchor="end" x="71.6" y="4.199999999999999" style="font-family: 'Open Sans', verdana, arial, sans-serif; font-size: 12px; fill: rgb(42, 63, 95); fill-opacity: 1; white-space: pre; opacity: 1;" transform="translate(0,299.18)">0.5</text></g><g class="ytick"><text text-anchor="end" x="71.6" y="4.199999999999999" style="font-family: 'Open Sans', verdana, arial, sans-serif; font-size: 12px; fill: rgb(42, 63, 95); fill-opacity: 1; white-space: pre; opacity: 1;" transform="translate(0,261.68)">1</text></g><g class="ytick"><text text-anchor="end" x="71.6" y="4.199999999999999" style="font-family: 'Open Sans', verdana, arial, sans-serif; font-size: 12px; fill: rgb(42, 63, 95); fill-opacity: 1; white-space: pre; opacity: 1;" transform="translate(0,224.17000000000002)">1.5</text></g><g class="ytick"><text text-anchor="end" x="71.6" y="4.199999999999999" style="font-family: 'Open Sans', verdana, arial, sans-serif; font-size: 12px; fill: rgb(42, 63, 95); fill-opacity: 1; white-space: pre; opacity: 1;" transform="translate(0,186.67000000000002)">2</text></g><g class="ytick"><text text-anchor="end" x="71.6" y="4.199999999999999" style="font-family: 'Open Sans', verdana, arial, sans-serif; font-size: 12px; fill: rgb(42, 63, 95); fill-opacity: 1; white-space: pre; opacity: 1;" transform="translate(0,149.17000000000002)">2.5</text></g><g class="ytick"><text text-anchor="end" x="71.6" y="4.199999999999999" style="font-family: 'Open Sans', verdana, arial, sans-serif; font-size: 12px; fill: rgb(42, 63, 95); fill-opacity: 1; white-space: pre; opacity: 1;" transform="translate(0,111.67)">3</text></g></g><g class="overaxes-above"/></g></g><g class="polarlayer"/><g class="smithlayer"/><g class="ternarylayer"/><g class="geolayer"/><g class="funnelarealayer"/><g class="pielayer"/><g class="iciclelayer"/><g class="treemaplayer"/><g class="sunburstlayer"/><g class="glimages"/><defs id="topdefs-4015be"><g class="clips"/></defs><g class="layer-above"><g class="imagelayer"/><g class="shapelayer"/></g><g class="infolayer"><g class="g-gtitle"/><g class="g-xtitle"/><g class="g-ytitle"/></g></svg>