<?xml version="1.0" encoding="utf-8" standalone="no"?>
<!DOCTYPE svg PUBLIC "-//W3C//DTD SVG 1.1//EN"
  "http://www.w3.org/Graphics/SVG/1.1/DTD/svg11.dtd">
<svg xmlns:xlink="http://www.w3.org/1999/xlink" width="432pt" height="288pt" viewBox="0 0 432 288" xmlns="http://www.w3.org/2000/svg" version="1.1">
 <metadata>
  <rdf:RDF xmlns:dc="http://purl.org/dc/elements/1.1/" xmlns:cc="http://creativecommons.org/ns#" xmlns:rdf="http://www.w3.org/1999/02/22-rdf-syntax-ns#">
   <cc:Work>
    <dc:type rdf:resource="http://purl.org/dc/dcmitype/StillImage"/>
    <dc:date>2025-08-26T09:50:12.333484</dc:date>
    <dc:format>image/svg+xml</dc:format>
    <dc:creator>
     <cc:Agent>
      <dc:title>Matplotlib v3.10.1, https://matplotlib.org/</dc:title>
     </cc:Agent>
    </dc:creator>
   </cc:Work>
  </rdf:RDF>
 </metadata>
 <defs>
  <style type="text/css">*{stroke-linejoin: round; stroke-linecap: butt}</style>
 </defs>
 <g id="figure_1">
  <g id="patch_1">
   <path d="M 0 288 
L 432 288 
L 432 0 
L 0 0 
z
" style="fill: #ffffff"/>
  </g>
  <g id="axes_1">
   <g id="patch_2">
    <path d="M 54 256.32 
L 388.8 256.32 
L 388.8 34.56 
L 54 34.56 
z
" style="fill: #ffffff"/>
   </g>
   <g id="matplotlib.axis_1">
    <g id="xtick_1">
     <g id="line2d_1">
      <defs>
       <path id="m2a15661d1d" d="M 0 0 
L 0 4.8 
" style="stroke: #262626"/>
      </defs>
      <g>
       <use xlink:href="#m2a15661d1d" x="69.218182" y="256.32" style="fill: #262626; stroke: #262626"/>
      </g>
     </g>
     <g id="text_1">
      <!-- 0 -->
      <g style="fill: #262626" transform="translate(65.792644 273.438425) scale(0.1232 -0.1232)">
       <defs>
        <path id="ArialMT-30" d="M 266 2259 
Q 266 3072 433 3567 
Q 600 4063 929 4331 
Q 1259 4600 1759 4600 
Q 2128 4600 2406 4451 
Q 2684 4303 2865 4023 
Q 3047 3744 3150 3342 
Q 3253 2941 3253 2259 
Q 3253 1453 3087 958 
Q 2922 463 2592 192 
Q 2263 -78 1759 -78 
Q 1097 -78 719 397 
Q 266 969 266 2259 
z
M 844 2259 
Q 844 1131 1108 757 
Q 1372 384 1759 384 
Q 2147 384 2411 759 
Q 2675 1134 2675 2259 
Q 2675 3391 2411 3762 
Q 2147 4134 1753 4134 
Q 1366 4134 1134 3806 
Q 844 3388 844 2259 
z
" transform="scale(0.015625)"/>
       </defs>
       <use xlink:href="#ArialMT-30"/>
      </g>
     </g>
    </g>
    <g id="xtick_2">
     <g id="line2d_2">
      <g>
       <use xlink:href="#m2a15661d1d" x="130.090909" y="256.32" style="fill: #262626; stroke: #262626"/>
      </g>
     </g>
     <g id="text_2">
      <!-- 20 -->
      <g style="fill: #262626" transform="translate(123.239834 273.438425) scale(0.1232 -0.1232)">
       <defs>
        <path id="ArialMT-32" d="M 3222 541 
L 3222 0 
L 194 0 
Q 188 203 259 391 
Q 375 700 629 1000 
Q 884 1300 1366 1694 
Q 2113 2306 2375 2664 
Q 2638 3022 2638 3341 
Q 2638 3675 2398 3904 
Q 2159 4134 1775 4134 
Q 1369 4134 1125 3890 
Q 881 3647 878 3216 
L 300 3275 
Q 359 3922 746 4261 
Q 1134 4600 1788 4600 
Q 2447 4600 2831 4234 
Q 3216 3869 3216 3328 
Q 3216 3053 3103 2787 
Q 2991 2522 2730 2228 
Q 2469 1934 1863 1422 
Q 1356 997 1212 845 
Q 1069 694 975 541 
L 3222 541 
z
" transform="scale(0.015625)"/>
       </defs>
       <use xlink:href="#ArialMT-32"/>
       <use xlink:href="#ArialMT-30" transform="translate(55.615234 0)"/>
      </g>
     </g>
    </g>
    <g id="xtick_3">
     <g id="line2d_3">
      <g>
       <use xlink:href="#m2a15661d1d" x="190.963636" y="256.32" style="fill: #262626; stroke: #262626"/>
      </g>
     </g>
     <g id="text_3">
      <!-- 40 -->
      <g style="fill: #262626" transform="translate(184.112561 273.438425) scale(0.1232 -0.1232)">
       <defs>
        <path id="ArialMT-34" d="M 2069 0 
L 2069 1097 
L 81 1097 
L 81 1613 
L 2172 4581 
L 2631 4581 
L 2631 1613 
L 3250 1613 
L 3250 1097 
L 2631 1097 
L 2631 0 
L 2069 0 
z
M 2069 1613 
L 2069 3678 
L 634 1613 
L 2069 1613 
z
" transform="scale(0.015625)"/>
       </defs>
       <use xlink:href="#ArialMT-34"/>
       <use xlink:href="#ArialMT-30" transform="translate(55.615234 0)"/>
      </g>
     </g>
    </g>
    <g id="xtick_4">
     <g id="line2d_4">
      <g>
       <use xlink:href="#m2a15661d1d" x="251.836364" y="256.32" style="fill: #262626; stroke: #262626"/>
      </g>
     </g>
     <g id="text_4">
      <!-- 60 -->
      <g style="fill: #262626" transform="translate(244.985289 273.438425) scale(0.1232 -0.1232)">
       <defs>
        <path id="ArialMT-36" d="M 3184 3459 
L 2625 3416 
Q 2550 3747 2413 3897 
Q 2184 4138 1850 4138 
Q 1581 4138 1378 3988 
Q 1113 3794 959 3422 
Q 806 3050 800 2363 
Q 1003 2672 1297 2822 
Q 1591 2972 1913 2972 
Q 2475 2972 2870 2558 
Q 3266 2144 3266 1488 
Q 3266 1056 3080 686 
Q 2894 316 2569 119 
Q 2244 -78 1831 -78 
Q 1128 -78 684 439 
Q 241 956 241 2144 
Q 241 3472 731 4075 
Q 1159 4600 1884 4600 
Q 2425 4600 2770 4297 
Q 3116 3994 3184 3459 
z
M 888 1484 
Q 888 1194 1011 928 
Q 1134 663 1356 523 
Q 1578 384 1822 384 
Q 2178 384 2434 671 
Q 2691 959 2691 1453 
Q 2691 1928 2437 2201 
Q 2184 2475 1800 2475 
Q 1419 2475 1153 2201 
Q 888 1928 888 1484 
z
" transform="scale(0.015625)"/>
       </defs>
       <use xlink:href="#ArialMT-36"/>
       <use xlink:href="#ArialMT-30" transform="translate(55.615234 0)"/>
      </g>
     </g>
    </g>
    <g id="xtick_5">
     <g id="line2d_5">
      <g>
       <use xlink:href="#m2a15661d1d" x="312.709091" y="256.32" style="fill: #262626; stroke: #262626"/>
      </g>
     </g>
     <g id="text_5">
      <!-- 80 -->
      <g style="fill: #262626" transform="translate(305.858016 273.438425) scale(0.1232 -0.1232)">
       <defs>
        <path id="ArialMT-38" d="M 1131 2484 
Q 781 2613 612 2850 
Q 444 3088 444 3419 
Q 444 3919 803 4259 
Q 1163 4600 1759 4600 
Q 2359 4600 2725 4251 
Q 3091 3903 3091 3403 
Q 3091 3084 2923 2848 
Q 2756 2613 2416 2484 
Q 2838 2347 3058 2040 
Q 3278 1734 3278 1309 
Q 3278 722 2862 322 
Q 2447 -78 1769 -78 
Q 1091 -78 675 323 
Q 259 725 259 1325 
Q 259 1772 486 2073 
Q 713 2375 1131 2484 
z
M 1019 3438 
Q 1019 3113 1228 2906 
Q 1438 2700 1772 2700 
Q 2097 2700 2305 2904 
Q 2513 3109 2513 3406 
Q 2513 3716 2298 3927 
Q 2084 4138 1766 4138 
Q 1444 4138 1231 3931 
Q 1019 3725 1019 3438 
z
M 838 1322 
Q 838 1081 952 856 
Q 1066 631 1291 507 
Q 1516 384 1775 384 
Q 2178 384 2440 643 
Q 2703 903 2703 1303 
Q 2703 1709 2433 1975 
Q 2163 2241 1756 2241 
Q 1359 2241 1098 1978 
Q 838 1716 838 1322 
z
" transform="scale(0.015625)"/>
       </defs>
       <use xlink:href="#ArialMT-38"/>
       <use xlink:href="#ArialMT-30" transform="translate(55.615234 0)"/>
      </g>
     </g>
    </g>
    <g id="xtick_6">
     <g id="line2d_6">
      <g>
       <use xlink:href="#m2a15661d1d" x="373.581818" y="256.32" style="fill: #262626; stroke: #262626"/>
      </g>
     </g>
     <g id="text_6">
      <!-- 100 -->
      <g style="fill: #262626" transform="translate(363.305206 273.438425) scale(0.1232 -0.1232)">
       <defs>
        <path id="ArialMT-31" d="M 2384 0 
L 1822 0 
L 1822 3584 
Q 1619 3391 1289 3197 
Q 959 3003 697 2906 
L 697 3450 
Q 1169 3672 1522 3987 
Q 1875 4303 2022 4600 
L 2384 4600 
L 2384 0 
z
" transform="scale(0.015625)"/>
       </defs>
       <use xlink:href="#ArialMT-31"/>
       <use xlink:href="#ArialMT-30" transform="translate(55.615234 0)"/>
       <use xlink:href="#ArialMT-30" transform="translate(111.230469 0)"/>
      </g>
     </g>
    </g>
   </g>
   <g id="matplotlib.axis_2">
    <g id="ytick_1">
     <g id="line2d_7">
      <defs>
       <path id="m0e67745b8a" d="M 0 0 
L -4.8 0 
" style="stroke: #262626"/>
      </defs>
      <g>
       <use xlink:href="#m0e67745b8a" x="54" y="252.770273" style="fill: #262626; stroke: #262626"/>
      </g>
     </g>
     <g id="text_7">
      <!-- −1 -->
      <g style="fill: #262626" transform="translate(31.653275 257.179486) scale(0.1232 -0.1232)">
       <defs>
        <path id="ArialMT-2212" d="M 3381 1997 
L 356 1997 
L 356 2522 
L 3381 2522 
L 3381 1997 
z
" transform="scale(0.015625)"/>
       </defs>
       <use xlink:href="#ArialMT-2212"/>
       <use xlink:href="#ArialMT-31" transform="translate(58.398438 0)"/>
      </g>
     </g>
    </g>
    <g id="ytick_2">
     <g id="line2d_8">
      <g>
       <use xlink:href="#m0e67745b8a" x="54" y="199.707239" style="fill: #262626; stroke: #262626"/>
      </g>
     </g>
     <g id="text_8">
      <!-- 0 -->
      <g style="fill: #262626" transform="translate(38.848925 204.116451) scale(0.1232 -0.1232)">
       <use xlink:href="#ArialMT-30"/>
      </g>
     </g>
    </g>
    <g id="ytick_3">
     <g id="line2d_9">
      <g>
       <use xlink:href="#m0e67745b8a" x="54" y="146.644204" style="fill: #262626; stroke: #262626"/>
      </g>
     </g>
     <g id="text_9">
      <!-- 1 -->
      <g style="fill: #262626" transform="translate(38.848925 151.053417) scale(0.1232 -0.1232)">
       <use xlink:href="#ArialMT-31"/>
      </g>
     </g>
    </g>
    <g id="ytick_4">
     <g id="line2d_10">
      <g>
       <use xlink:href="#m0e67745b8a" x="54" y="93.58117" style="fill: #262626; stroke: #262626"/>
      </g>
     </g>
     <g id="text_10">
      <!-- 2 -->
      <g style="fill: #262626" transform="translate(38.848925 97.990382) scale(0.1232 -0.1232)">
       <use xlink:href="#ArialMT-32"/>
      </g>
     </g>
    </g>
    <g id="ytick_5">
     <g id="line2d_11">
      <g>
       <use xlink:href="#m0e67745b8a" x="54" y="40.518135" style="fill: #262626; stroke: #262626"/>
      </g>
     </g>
     <g id="text_11">
      <!-- 3 -->
      <g style="fill: #262626" transform="translate(38.848925 44.927348) scale(0.1232 -0.1232)">
       <defs>
        <path id="ArialMT-33" d="M 269 1209 
L 831 1284 
Q 928 806 1161 595 
Q 1394 384 1728 384 
Q 2125 384 2398 659 
Q 2672 934 2672 1341 
Q 2672 1728 2419 1979 
Q 2166 2231 1775 2231 
Q 1616 2231 1378 2169 
L 1441 2663 
Q 1497 2656 1531 2656 
Q 1891 2656 2178 2843 
Q 2466 3031 2466 3422 
Q 2466 3731 2256 3934 
Q 2047 4138 1716 4138 
Q 1388 4138 1169 3931 
Q 950 3725 888 3313 
L 325 3413 
Q 428 3978 793 4289 
Q 1159 4600 1703 4600 
Q 2078 4600 2393 4439 
Q 2709 4278 2876 4000 
Q 3044 3722 3044 3409 
Q 3044 3113 2884 2869 
Q 2725 2625 2413 2481 
Q 2819 2388 3044 2092 
Q 3269 1797 3269 1353 
Q 3269 753 2831 336 
Q 2394 -81 1725 -81 
Q 1122 -81 723 278 
Q 325 638 269 1209 
z
" transform="scale(0.015625)"/>
       </defs>
       <use xlink:href="#ArialMT-33"/>
      </g>
     </g>
    </g>
   </g>
   <g id="line2d_12">
    <path d="M 69.218182 178.398876 
L 69.461697 179.513366 
L 69.644334 179.671572 
L 69.766091 179.48507 
L 70.040046 178.358071 
L 70.435758 175.254073 
L 72.840471 153.214278 
L 73.297062 151.173565 
L 73.723214 150.044014 
L 73.997169 149.923495 
L 74.179805 150.161185 
L 74.484199 151.053325 
L 75.123427 153.963408 
L 75.549579 157.023729 
L 76.219246 163.891153 
L 78.228246 190.732156 
L 79.902414 216.466377 
L 81.15043 233.808347 
L 81.850536 240.150958 
L 82.550642 244.346039 
L 82.976794 245.752449 
L 83.250749 246.189698 
L 83.463825 246.188025 
L 83.616022 245.863166 
L 84.22481 243.228725 
L 84.71184 239.885598 
L 85.198871 234.962611 
L 85.74678 226.354548 
L 86.26425 214.394515 
L 86.720841 199.166052 
L 87.268751 173.064373 
L 88.364569 114.834739 
L 89.034236 93.220219 
L 89.734343 76.357147 
L 90.464888 64.028953 
L 91.438949 52.131344 
L 91.89554 48.654341 
L 92.44345 45.940909 
L 92.747844 45.271882 
L 93.204435 44.82389 
L 93.417511 45.064208 
L 93.782784 45.918724 
L 94.208935 47.888042 
L 94.665527 51.043622 
L 95.182996 56.148016 
L 96.248376 68.863812 
L 97.892104 93.46961 
L 99.566271 119.392087 
L 100.479453 129.664254 
L 101.605711 138.722671 
L 102.153621 141.131373 
L 102.549333 142.080121 
L 102.853727 142.268653 
L 103.219 142.248436 
L 103.401637 141.908 
L 103.645152 140.721955 
L 104.132182 136.965811 
L 104.954046 129.025384 
L 105.867229 118.063453 
L 107.145684 100.028351 
L 109.854791 60.115373 
L 110.707094 52.232101 
L 111.43764 47.160504 
L 111.711595 46.221077 
L 112.015989 45.754391 
L 112.229065 45.871325 
L 112.776974 46.946248 
L 113.050929 47.878405 
L 113.50752 50.822268 
L 114.633778 60.206541 
L 115.364324 68.276403 
L 116.186188 79.844838 
L 119.017053 121.850208 
L 119.991114 131.942259 
L 120.873856 139.592381 
L 121.269569 141.241196 
L 121.513084 141.585118 
L 122.274069 141.990226 
L 122.426266 141.793241 
L 122.608903 141.062932 
L 123.004615 138.801283 
L 123.704721 133.466285 
L 124.28307 127.89585 
L 124.922298 119.829038 
L 125.744162 107.331989 
L 128.179314 68.090615 
L 128.940299 58.949484 
L 129.792603 50.974783 
L 130.340512 47.688847 
L 130.766664 46.333108 
L 131.405891 45.891865 
L 131.862483 46.344815 
L 132.105998 47.033075 
L 132.440831 48.816186 
L 133.414892 56.245163 
L 134.419393 66.371467 
L 135.08906 75.483602 
L 135.880484 88.298324 
L 136.976303 105.887597 
L 138.406955 126.272509 
L 139.411456 136.81369 
L 139.989804 140.466965 
L 140.415956 141.876079 
L 140.72035 142.25176 
L 140.933426 142.258373 
L 141.085623 142.040566 
L 141.420457 141.006433 
L 141.877048 139.038408 
L 142.27276 136.422367 
L 143.003306 130.320458 
L 143.855609 120.336014 
L 144.86011 105.445516 
L 147.325702 67.264345 
L 147.964929 60.051232 
L 148.847672 51.842172 
L 149.517339 47.629476 
L 149.943491 45.765805 
L 150.339203 44.821764 
L 150.613158 44.859225 
L 150.795794 45.07803 
L 151.069749 45.850733 
L 151.52634 48.010001 
L 152.287325 53.566042 
L 153.383144 66.049535 
L 154.60072 83.163343 
L 156.335766 110.793302 
L 157.370706 124.794919 
L 158.405646 135.139359 
L 159.105752 140.095014 
L 159.623222 142.194677 
L 159.866738 142.536862 
L 160.049374 142.471657 
L 160.23201 142.070705 
L 160.871238 140.061605 
L 161.419147 136.738191 
L 162.058375 131.320458 
L 162.667163 124.327802 
L 165.132755 89.049094 
L 166.837362 65.749596 
L 167.811423 54.326467 
L 168.420211 49.708639 
L 169.059439 46.896854 
L 169.394272 46.085046 
L 169.576909 45.917267 
L 169.607348 45.937214 
L 169.942181 46.39235 
L 170.490091 47.692349 
L 171.311955 52.499086 
L 172.194698 59.856563 
L 172.864365 68.930464 
L 176.608412 127.137184 
L 177.247639 133.712583 
L 178.099943 139.210176 
L 178.586973 140.488471 
L 178.830489 140.666986 
L 179.013125 140.918852 
L 179.25664 141.18641 
L 179.408837 141.131435 
L 179.652353 140.741524 
L 180.048065 139.491476 
L 180.443777 137.340642 
L 180.991686 132.247138 
L 181.661353 124.87207 
L 183.639915 98.632324 
L 186.47078 57.466437 
L 187.444841 49.430537 
L 188.053629 46.724077 
L 188.479781 45.900355 
L 188.784175 45.828846 
L 188.997251 46.213436 
L 189.453842 48.166385 
L 189.849554 50.709716 
L 191.188888 61.27495 
L 192.13251 73.537408 
L 194.567662 110.651301 
L 195.541723 124.354922 
L 196.333148 133.708048 
L 197.033254 138.937015 
L 197.520285 141.134917 
L 198.007315 142.316648 
L 198.342149 142.686303 
L 198.555225 142.622674 
L 198.7683 142.254477 
L 199.072695 141.376579 
L 199.468407 139.499248 
L 200.107634 134.637968 
L 201.020817 125.210542 
L 202.329711 106.262123 
L 204.703985 69.85371 
L 205.799804 57.037788 
L 206.560789 50.597962 
L 207.169577 46.527303 
L 207.626168 44.811029 
L 207.839244 44.640323 
L 207.961002 44.72089 
L 208.356714 45.367898 
L 208.661108 46.434791 
L 209.117699 48.698087 
L 209.57429 52.2328 
L 210.304836 59.73492 
L 211.157139 71.34044 
L 213.988004 115.217397 
L 215.083823 128.763765 
L 215.936126 136.142761 
L 216.484036 138.927376 
L 217.031945 140.660472 
L 217.245021 140.88627 
L 217.853809 140.997749 
L 218.066885 140.611301 
L 218.371279 139.537974 
L 218.980067 136.273175 
L 219.649734 130.198246 
L 220.38028 121.835776 
L 221.232583 109.31601 
L 222.632796 87.151403 
L 224.824433 57.567025 
L 225.402782 52.814545 
L 225.950691 49.443485 
L 226.711677 46.410903 
L 226.985631 45.960485 
L 227.229147 45.905609 
L 227.350904 46.059537 
L 227.624859 46.845513 
L 228.324965 50.226057 
L 228.720678 53.258943 
L 229.755617 64.402973 
L 230.973194 81.000126 
L 232.677801 108.527469 
L 233.651862 122.986973 
L 234.382407 131.245133 
L 235.204271 138.756676 
L 235.569544 140.56143 
L 235.934817 141.447314 
L 236.117454 141.547469 
L 237.000196 140.717709 
L 237.274151 140.091505 
L 237.791621 137.761282 
L 238.430849 133.836536 
L 239.039637 127.649121 
L 240.135455 112.759428 
L 241.687865 87.664711 
L 242.935881 69.606986 
L 244.123018 55.73938 
L 244.640488 51.89094 
L 245.279715 48.347006 
L 245.736306 46.946594 
L 245.888503 46.940441 
L 246.101579 47.268754 
L 246.740807 49.148978 
L 247.62355 53.483105 
L 248.293217 58.844907 
L 248.902005 65.195987 
L 250.576172 87.165608 
L 253.437476 130.457262 
L 254.198462 136.97698 
L 254.655053 138.474665 
L 255.720432 140.223171 
L 255.963947 140.166948 
L 256.542296 139.623799 
L 257.059766 137.478851 
L 257.577236 133.897222 
L 258.155585 127.612074 
L 258.977449 116.524635 
L 262.812814 60.474812 
L 263.695557 51.487205 
L 264.213027 48.242482 
L 264.517421 47.511199 
L 264.760936 47.248803 
L 265.400164 46.863757 
L 265.674118 46.721066 
L 266.069831 46.960316 
L 266.343785 47.830509 
L 266.648179 49.785113 
L 267.13521 54.372789 
L 268.017953 64.813079 
L 269.296408 83.731298 
L 271.396727 115.593108 
L 273.010016 133.835678 
L 273.557925 137.697518 
L 274.105834 140.151927 
L 274.410228 141.065667 
L 274.83638 141.690671 
L 275.140774 141.450906 
L 275.475608 140.824534 
L 275.719123 139.793095 
L 276.114835 137.146261 
L 276.967139 129.704472 
L 277.636805 121.764029 
L 278.549988 108.551837 
L 280.193716 83.968956 
L 281.53305 64.772362 
L 282.446232 55.012116 
L 283.085459 49.994986 
L 283.694248 47.186544 
L 284.08996 46.45655 
L 284.333475 46.293735 
L 284.516112 46.324674 
L 284.790066 46.792908 
L 285.185779 48.185135 
L 285.977203 51.903206 
L 286.616431 57.76864 
L 287.316537 66.000195 
L 288.655871 84.690864 
L 290.147402 108.246186 
L 291.27366 124.694798 
L 292.125964 133.335009 
L 292.765191 137.690124 
L 293.282661 139.540851 
L 293.647934 140.130552 
L 293.982767 140.226531 
L 294.226283 139.834697 
L 294.561116 138.645912 
L 295.139465 135.708725 
L 295.626495 132.497288 
L 296.357041 125.452647 
L 297.270223 113.240901 
L 300.740316 64.600834 
L 301.714377 53.647378 
L 302.353604 49.087253 
L 303.023271 46.337367 
L 303.297226 45.994516 
L 303.723378 46.010384 
L 303.875575 46.103756 
L 304.149529 46.80209 
L 304.575681 48.611801 
L 305.062712 51.717985 
L 305.701939 57.249306 
L 306.676 70.33515 
L 307.71094 85.070749 
L 310.480926 125.516031 
L 311.363669 134.303103 
L 312.094215 139.022266 
L 312.489927 140.687607 
L 313.098715 142.141274 
L 313.281352 142.137133 
L 313.433549 141.993658 
L 313.707503 141.437725 
L 314.072776 139.963559 
L 314.620686 136.305362 
L 315.564307 127.719925 
L 316.507929 115.281192 
L 317.48199 98.84004 
L 318.912642 75.954954 
L 320.647688 54.559353 
L 321.469552 48.92239 
L 321.987022 46.608729 
L 322.291416 45.776862 
L 322.534932 45.658629 
L 322.687129 45.757288 
L 322.930644 46.103999 
L 323.326356 47.208606 
L 323.691629 48.958068 
L 324.300417 53.362033 
L 325.030963 60.13462 
L 326.339858 76.264908 
L 329.901268 129.854755 
L 330.570935 136.33213 
L 331.210163 139.996074 
L 331.575436 141.22617 
L 332.062466 142.041504 
L 332.184224 141.949133 
L 332.793012 140.908352 
L 333.158285 139.440441 
L 333.614876 136.668652 
L 334.649816 127.437849 
L 335.319483 118.477683 
L 339.033091 64.004894 
L 340.189788 51.439239 
L 340.5855 48.908419 
L 341.346486 46.133593 
L 341.711758 45.548304 
L 341.955274 45.380981 
L 342.16835 45.643767 
L 342.442304 46.384064 
L 342.898895 48.308523 
L 343.264168 50.774648 
L 344.17735 59.633788 
L 345.394927 76.52689 
L 348.80414 128.020249 
L 349.930398 137.782611 
L 350.417429 140.044637 
L 351.056657 141.93713 
L 351.239293 142.069443 
L 351.452369 142.03117 
L 351.665445 141.708838 
L 351.90896 140.850162 
L 352.730824 136.841883 
L 353.217855 133.172512 
L 354.100597 123.165085 
L 355.592128 101.071141 
L 357.235856 74.898706 
L 358.727387 56.282969 
L 359.366615 50.763615 
L 359.914524 47.644989 
L 360.401555 46.51342 
L 361.466934 45.722318 
L 361.68001 46.170314 
L 361.984404 47.625513 
L 362.410556 50.678285 
L 363.415056 60.774529 
L 364.023844 69.506851 
L 365.576254 92.313474 
L 366.885149 112.592038 
L 367.85921 126.519487 
L 368.681074 134.588104 
L 369.38118 139.150089 
L 369.959529 141.068964 
L 370.263923 141.642335 
L 370.476999 141.721506 
L 370.690074 141.672323 
L 371.024908 141.146511 
L 371.359741 140.226718 
L 371.603257 138.996236 
L 372.333802 134.756856 
L 372.881712 131.097137 
L 373.581818 126.072876 
L 373.581818 126.072876 
" clip-path="url(#p2dacd20b9f)" style="fill: none; stroke: #1a2441; stroke-width: 1.5; stroke-linecap: round"/>
   </g>
   <g id="patch_3">
    <path d="M 54 256.32 
L 54 34.56 
" style="fill: none; stroke: #262626; stroke-linejoin: miter; stroke-linecap: square"/>
   </g>
   <g id="patch_4">
    <path d="M 388.8 256.32 
L 388.8 34.56 
" style="fill: none; stroke: #262626; stroke-linejoin: miter; stroke-linecap: square"/>
   </g>
   <g id="patch_5">
    <path d="M 54 256.32 
L 388.8 256.32 
" style="fill: none; stroke: #262626; stroke-linejoin: miter; stroke-linecap: square"/>
   </g>
   <g id="patch_6">
    <path d="M 54 34.56 
L 388.8 34.56 
" style="fill: none; stroke: #262626; stroke-linejoin: miter; stroke-linecap: square"/>
   </g>
  </g>
 </g>
 <defs>
  <clipPath id="p2dacd20b9f">
   <rect x="54" y="34.56" width="334.8" height="221.76"/>
  </clipPath>
 </defs>
</svg>
