<?xml version="1.0" encoding="utf-8" standalone="no"?>
<!DOCTYPE svg PUBLIC "-//W3C//DTD SVG 1.1//EN"
  "http://www.w3.org/Graphics/SVG/1.1/DTD/svg11.dtd">
<svg xmlns:xlink="http://www.w3.org/1999/xlink" width="432pt" height="288pt" viewBox="0 0 432 288" xmlns="http://www.w3.org/2000/svg" version="1.1">
 <metadata>
  <rdf:RDF xmlns:dc="http://purl.org/dc/elements/1.1/" xmlns:cc="http://creativecommons.org/ns#" xmlns:rdf="http://www.w3.org/1999/02/22-rdf-syntax-ns#">
   <cc:Work>
    <dc:type rdf:resource="http://purl.org/dc/dcmitype/StillImage"/>
    <dc:date>2026-04-16T10:12:40.324821</dc:date>
    <dc:format>image/svg+xml</dc:format>
    <dc:creator>
     <cc:Agent>
      <dc:title>Matplotlib v3.10.8, https://matplotlib.org/</dc:title>
     </cc:Agent>
    </dc:creator>
   </cc:Work>
  </rdf:RDF>
 </metadata>
 <defs>
  <style type="text/css">*{stroke-linejoin: round; stroke-linecap: butt}</style>
 </defs>
 <g id="figure_1">
  <g id="patch_1">
   <path d="M 0 288 
L 432 288 
L 432 0 
L 0 0 
z
" style="fill: #ffffff"/>
  </g>
  <g id="axes_1">
   <g id="patch_2">
    <path d="M 54 256.32 
L 388.8 256.32 
L 388.8 34.56 
L 54 34.56 
z
" style="fill: #ffffff"/>
   </g>
   <g id="matplotlib.axis_1">
    <g id="xtick_1">
     <g id="line2d_1">
      <defs>
       <path id="m2f50ad3976" d="M 0 0 
L 0 4.8 
" style="stroke: #262626"/>
      </defs>
      <g>
       <use xlink:href="#m2f50ad3976" x="69.218182" y="256.32" style="fill: #262626; stroke: #262626"/>
      </g>
     </g>
     <g id="text_1">
      <!-- 0 -->
      <g style="fill: #262626" transform="translate(65.792644 273.438425) scale(0.1232 -0.1232)">
       <defs>
        <path id="ArialMT-30" d="M 266 2259 
Q 266 3072 433 3567 
Q 600 4063 929 4331 
Q 1259 4600 1759 4600 
Q 2128 4600 2406 4451 
Q 2684 4303 2865 4023 
Q 3047 3744 3150 3342 
Q 3253 2941 3253 2259 
Q 3253 1453 3087 958 
Q 2922 463 2592 192 
Q 2263 -78 1759 -78 
Q 1097 -78 719 397 
Q 266 969 266 2259 
z
M 844 2259 
Q 844 1131 1108 757 
Q 1372 384 1759 384 
Q 2147 384 2411 759 
Q 2675 1134 2675 2259 
Q 2675 3391 2411 3762 
Q 2147 4134 1753 4134 
Q 1366 4134 1134 3806 
Q 844 3388 844 2259 
z
" transform="scale(0.015625)"/>
       </defs>
       <use xlink:href="#ArialMT-30"/>
      </g>
     </g>
    </g>
    <g id="xtick_2">
     <g id="line2d_2">
      <g>
       <use xlink:href="#m2f50ad3976" x="130.090909" y="256.32" style="fill: #262626; stroke: #262626"/>
      </g>
     </g>
     <g id="text_2">
      <!-- 20 -->
      <g style="fill: #262626" transform="translate(123.239834 273.438425) scale(0.1232 -0.1232)">
       <defs>
        <path id="ArialMT-32" d="M 3222 541 
L 3222 0 
L 194 0 
Q 188 203 259 391 
Q 375 700 629 1000 
Q 884 1300 1366 1694 
Q 2113 2306 2375 2664 
Q 2638 3022 2638 3341 
Q 2638 3675 2398 3904 
Q 2159 4134 1775 4134 
Q 1369 4134 1125 3890 
Q 881 3647 878 3216 
L 300 3275 
Q 359 3922 746 4261 
Q 1134 4600 1788 4600 
Q 2447 4600 2831 4234 
Q 3216 3869 3216 3328 
Q 3216 3053 3103 2787 
Q 2991 2522 2730 2228 
Q 2469 1934 1863 1422 
Q 1356 997 1212 845 
Q 1069 694 975 541 
L 3222 541 
z
" transform="scale(0.015625)"/>
       </defs>
       <use xlink:href="#ArialMT-32"/>
       <use xlink:href="#ArialMT-30" transform="translate(55.615234 0)"/>
      </g>
     </g>
    </g>
    <g id="xtick_3">
     <g id="line2d_3">
      <g>
       <use xlink:href="#m2f50ad3976" x="190.963636" y="256.32" style="fill: #262626; stroke: #262626"/>
      </g>
     </g>
     <g id="text_3">
      <!-- 40 -->
      <g style="fill: #262626" transform="translate(184.112561 273.438425) scale(0.1232 -0.1232)">
       <defs>
        <path id="ArialMT-34" d="M 2069 0 
L 2069 1097 
L 81 1097 
L 81 1613 
L 2172 4581 
L 2631 4581 
L 2631 1613 
L 3250 1613 
L 3250 1097 
L 2631 1097 
L 2631 0 
L 2069 0 
z
M 2069 1613 
L 2069 3678 
L 634 1613 
L 2069 1613 
z
" transform="scale(0.015625)"/>
       </defs>
       <use xlink:href="#ArialMT-34"/>
       <use xlink:href="#ArialMT-30" transform="translate(55.615234 0)"/>
      </g>
     </g>
    </g>
    <g id="xtick_4">
     <g id="line2d_4">
      <g>
       <use xlink:href="#m2f50ad3976" x="251.836364" y="256.32" style="fill: #262626; stroke: #262626"/>
      </g>
     </g>
     <g id="text_4">
      <!-- 60 -->
      <g style="fill: #262626" transform="translate(244.985289 273.438425) scale(0.1232 -0.1232)">
       <defs>
        <path id="ArialMT-36" d="M 3184 3459 
L 2625 3416 
Q 2550 3747 2413 3897 
Q 2184 4138 1850 4138 
Q 1581 4138 1378 3988 
Q 1113 3794 959 3422 
Q 806 3050 800 2363 
Q 1003 2672 1297 2822 
Q 1591 2972 1913 2972 
Q 2475 2972 2870 2558 
Q 3266 2144 3266 1488 
Q 3266 1056 3080 686 
Q 2894 316 2569 119 
Q 2244 -78 1831 -78 
Q 1128 -78 684 439 
Q 241 956 241 2144 
Q 241 3472 731 4075 
Q 1159 4600 1884 4600 
Q 2425 4600 2770 4297 
Q 3116 3994 3184 3459 
z
M 888 1484 
Q 888 1194 1011 928 
Q 1134 663 1356 523 
Q 1578 384 1822 384 
Q 2178 384 2434 671 
Q 2691 959 2691 1453 
Q 2691 1928 2437 2201 
Q 2184 2475 1800 2475 
Q 1419 2475 1153 2201 
Q 888 1928 888 1484 
z
" transform="scale(0.015625)"/>
       </defs>
       <use xlink:href="#ArialMT-36"/>
       <use xlink:href="#ArialMT-30" transform="translate(55.615234 0)"/>
      </g>
     </g>
    </g>
    <g id="xtick_5">
     <g id="line2d_5">
      <g>
       <use xlink:href="#m2f50ad3976" x="312.709091" y="256.32" style="fill: #262626; stroke: #262626"/>
      </g>
     </g>
     <g id="text_5">
      <!-- 80 -->
      <g style="fill: #262626" transform="translate(305.858016 273.438425) scale(0.1232 -0.1232)">
       <defs>
        <path id="ArialMT-38" d="M 1131 2484 
Q 781 2613 612 2850 
Q 444 3088 444 3419 
Q 444 3919 803 4259 
Q 1163 4600 1759 4600 
Q 2359 4600 2725 4251 
Q 3091 3903 3091 3403 
Q 3091 3084 2923 2848 
Q 2756 2613 2416 2484 
Q 2838 2347 3058 2040 
Q 3278 1734 3278 1309 
Q 3278 722 2862 322 
Q 2447 -78 1769 -78 
Q 1091 -78 675 323 
Q 259 725 259 1325 
Q 259 1772 486 2073 
Q 713 2375 1131 2484 
z
M 1019 3438 
Q 1019 3113 1228 2906 
Q 1438 2700 1772 2700 
Q 2097 2700 2305 2904 
Q 2513 3109 2513 3406 
Q 2513 3716 2298 3927 
Q 2084 4138 1766 4138 
Q 1444 4138 1231 3931 
Q 1019 3725 1019 3438 
z
M 838 1322 
Q 838 1081 952 856 
Q 1066 631 1291 507 
Q 1516 384 1775 384 
Q 2178 384 2440 643 
Q 2703 903 2703 1303 
Q 2703 1709 2433 1975 
Q 2163 2241 1756 2241 
Q 1359 2241 1098 1978 
Q 838 1716 838 1322 
z
" transform="scale(0.015625)"/>
       </defs>
       <use xlink:href="#ArialMT-38"/>
       <use xlink:href="#ArialMT-30" transform="translate(55.615234 0)"/>
      </g>
     </g>
    </g>
    <g id="xtick_6">
     <g id="line2d_6">
      <g>
       <use xlink:href="#m2f50ad3976" x="373.581818" y="256.32" style="fill: #262626; stroke: #262626"/>
      </g>
     </g>
     <g id="text_6">
      <!-- 100 -->
      <g style="fill: #262626" transform="translate(363.305206 273.438425) scale(0.1232 -0.1232)">
       <defs>
        <path id="ArialMT-31" d="M 2384 0 
L 1822 0 
L 1822 3584 
Q 1619 3391 1289 3197 
Q 959 3003 697 2906 
L 697 3450 
Q 1169 3672 1522 3987 
Q 1875 4303 2022 4600 
L 2384 4600 
L 2384 0 
z
" transform="scale(0.015625)"/>
       </defs>
       <use xlink:href="#ArialMT-31"/>
       <use xlink:href="#ArialMT-30" transform="translate(55.615234 0)"/>
       <use xlink:href="#ArialMT-30" transform="translate(111.230469 0)"/>
      </g>
     </g>
    </g>
   </g>
   <g id="matplotlib.axis_2">
    <g id="ytick_1">
     <g id="line2d_7">
      <defs>
       <path id="m94792b0d65" d="M 0 0 
L -4.8 0 
" style="stroke: #262626"/>
      </defs>
      <g>
       <use xlink:href="#m94792b0d65" x="54" y="251.979081" style="fill: #262626; stroke: #262626"/>
      </g>
     </g>
     <g id="text_7">
      <!-- −1 -->
      <g style="fill: #262626" transform="translate(31.653275 256.388293) scale(0.1232 -0.1232)">
       <defs>
        <path id="ArialMT-2212" d="M 3381 1997 
L 356 1997 
L 356 2522 
L 3381 2522 
L 3381 1997 
z
" transform="scale(0.015625)"/>
       </defs>
       <use xlink:href="#ArialMT-2212"/>
       <use xlink:href="#ArialMT-31" transform="translate(58.398438 0)"/>
      </g>
     </g>
    </g>
    <g id="ytick_2">
     <g id="line2d_8">
      <g>
       <use xlink:href="#m94792b0d65" x="54" y="199.346187" style="fill: #262626; stroke: #262626"/>
      </g>
     </g>
     <g id="text_8">
      <!-- 0 -->
      <g style="fill: #262626" transform="translate(38.848925 203.755399) scale(0.1232 -0.1232)">
       <use xlink:href="#ArialMT-30"/>
      </g>
     </g>
    </g>
    <g id="ytick_3">
     <g id="line2d_9">
      <g>
       <use xlink:href="#m94792b0d65" x="54" y="146.713293" style="fill: #262626; stroke: #262626"/>
      </g>
     </g>
     <g id="text_9">
      <!-- 1 -->
      <g style="fill: #262626" transform="translate(38.848925 151.122506) scale(0.1232 -0.1232)">
       <use xlink:href="#ArialMT-31"/>
      </g>
     </g>
    </g>
    <g id="ytick_4">
     <g id="line2d_10">
      <g>
       <use xlink:href="#m94792b0d65" x="54" y="94.080399" style="fill: #262626; stroke: #262626"/>
      </g>
     </g>
     <g id="text_10">
      <!-- 2 -->
      <g style="fill: #262626" transform="translate(38.848925 98.489612) scale(0.1232 -0.1232)">
       <use xlink:href="#ArialMT-32"/>
      </g>
     </g>
    </g>
    <g id="ytick_5">
     <g id="line2d_11">
      <g>
       <use xlink:href="#m94792b0d65" x="54" y="41.447506" style="fill: #262626; stroke: #262626"/>
      </g>
     </g>
     <g id="text_11">
      <!-- 3 -->
      <g style="fill: #262626" transform="translate(38.848925 45.856718) scale(0.1232 -0.1232)">
       <defs>
        <path id="ArialMT-33" d="M 269 1209 
L 831 1284 
Q 928 806 1161 595 
Q 1394 384 1728 384 
Q 2125 384 2398 659 
Q 2672 934 2672 1341 
Q 2672 1728 2419 1979 
Q 2166 2231 1775 2231 
Q 1616 2231 1378 2169 
L 1441 2663 
Q 1497 2656 1531 2656 
Q 1891 2656 2178 2843 
Q 2466 3031 2466 3422 
Q 2466 3731 2256 3934 
Q 2047 4138 1716 4138 
Q 1388 4138 1169 3931 
Q 950 3725 888 3313 
L 325 3413 
Q 428 3978 793 4289 
Q 1159 4600 1703 4600 
Q 2078 4600 2393 4439 
Q 2709 4278 2876 4000 
Q 3044 3722 3044 3409 
Q 3044 3113 2884 2869 
Q 2725 2625 2413 2481 
Q 2819 2388 3044 2092 
Q 3269 1797 3269 1353 
Q 3269 753 2831 336 
Q 2394 -81 1725 -81 
Q 1122 -81 723 278 
Q 325 638 269 1209 
z
" transform="scale(0.015625)"/>
       </defs>
       <use xlink:href="#ArialMT-33"/>
      </g>
     </g>
    </g>
   </g>
   <g id="line2d_12">
    <path d="M 69.218182 197.113588 
L 69.979167 186.722466 
L 71.135864 170.042788 
L 71.86641 162.185763 
L 72.596956 155.830929 
L 73.083987 153.001666 
L 73.692775 151.051683 
L 74.058048 150.23871 
L 74.210245 150.184659 
L 74.392881 150.517463 
L 74.758154 152.071872 
L 75.336503 155.653332 
L 75.823533 159.843144 
L 76.4932 166.928172 
L 77.254185 177.434221 
L 79.384944 209.897965 
L 80.450323 225.478029 
L 81.424384 237.223465 
L 81.880975 240.95266 
L 82.550642 244.350565 
L 83.007233 245.946615 
L 83.311628 246.239946 
L 83.646461 246.01311 
L 83.798658 245.69267 
L 84.316128 243.176941 
L 84.803158 240.005907 
L 85.198871 235.578549 
L 85.685901 227.473694 
L 86.203371 215.576462 
L 86.720841 198.412517 
L 87.268751 172.323372 
L 88.364569 113.897909 
L 88.973357 95.407643 
L 89.764782 78.222329 
L 90.525767 66.18067 
L 91.286752 56.893224 
L 92.078177 49.724248 
L 92.656526 46.403251 
L 93.052238 45.305284 
L 93.204435 45.315225 
L 93.356632 45.507709 
L 93.843663 46.745154 
L 94.117617 47.840608 
L 94.695966 51.415509 
L 95.182996 56.068528 
L 95.700466 61.842887 
L 97.344194 84.283753 
L 100.601211 130.97602 
L 101.453514 138.247305 
L 101.879666 140.365704 
L 102.397136 141.630136 
L 102.823288 141.987637 
L 103.097242 141.849289 
L 103.340758 141.57353 
L 103.553834 140.90256 
L 103.827788 139.330762 
L 104.497455 133.560342 
L 105.441077 123.164547 
L 106.384698 110.352259 
L 110.006988 57.535333 
L 110.615776 52.175763 
L 111.133246 49.095851 
L 111.772474 46.428935 
L 111.95511 46.330777 
L 112.107307 46.480314 
L 112.533459 47.416463 
L 113.081368 49.06004 
L 113.446641 50.886011 
L 114.085869 55.643938 
L 115.02949 65.402246 
L 115.699157 75.461917 
L 117.221128 98.438785 
L 119.412765 128.770956 
L 120.386826 137.679181 
L 120.843417 140.118345 
L 121.300008 141.430541 
L 121.543523 141.626914 
L 121.787039 141.418976 
L 122.030554 140.93808 
L 122.578463 139.074337 
L 123.887358 130.328202 
L 124.465707 123.974038 
L 125.957238 103.280438 
L 128.270633 68.903483 
L 129.275133 57.765826 
L 130.005679 52.309882 
L 130.553588 49.621032 
L 130.97974 48.449125 
L 131.284134 48.116481 
L 131.679846 48.124276 
L 132.01468 48.73811 
L 132.440831 50.522809 
L 132.988741 53.71479 
L 133.414892 57.134771 
L 134.328075 68.163489 
L 135.484772 85.020934 
L 137.098061 109.565917 
L 138.589592 128.693773 
L 139.228819 134.498664 
L 139.837607 138.224691 
L 140.476835 140.775637 
L 140.811668 141.320107 
L 141.116063 141.522716 
L 141.298699 141.47986 
L 141.481335 141.094407 
L 141.846608 139.879699 
L 142.151002 138.227103 
L 142.851109 133.128559 
L 143.459897 127.528629 
L 143.977367 121.236496 
L 145.834171 93.375689 
L 147.599656 66.448424 
L 148.330202 58.428617 
L 149.547778 48.983549 
L 149.943491 47.445278 
L 150.521839 46.203771 
L 150.674036 46.225345 
L 150.826234 46.464965 
L 151.161067 47.537419 
L 151.52634 49.709953 
L 152.409083 56.659634 
L 153.017871 63.107913 
L 154.296326 80.033486 
L 157.857737 130.590042 
L 159.014434 140.432134 
L 159.410146 142.021084 
L 159.836298 142.964853 
L 160.23201 143.271573 
L 160.384208 143.1372 
L 160.597283 142.428662 
L 161.053874 139.742162 
L 161.906178 133.75693 
L 162.697602 125.633311 
L 163.8543 110.801814 
L 164.88924 95.240221 
L 166.502528 70.006457 
L 167.750544 54.195243 
L 168.359332 48.836004 
L 168.815923 46.639144 
L 169.150757 45.877124 
L 169.546469 45.472358 
L 169.881303 45.54489 
L 170.185697 46.171059 
L 170.611848 47.907296 
L 171.311955 52.770898 
L 171.920743 58.954365 
L 172.833925 70.935773 
L 176.638851 126.009684 
L 177.460715 133.892708 
L 177.947746 136.93332 
L 178.73917 140.409864 
L 179.134883 140.781495 
L 179.317519 140.726777 
L 179.500155 140.382868 
L 180.352459 137.221466 
L 180.748171 134.616062 
L 181.204762 130.138916 
L 182.574536 114.114037 
L 184.827052 81.293238 
L 186.075068 64.343956 
L 187.018689 54.791027 
L 187.749235 49.560822 
L 188.236265 47.397752 
L 188.54066 46.908688 
L 188.814614 46.798759 
L 189.02769 46.953204 
L 189.271205 47.572613 
L 189.727796 49.442258 
L 190.214827 52.735574 
L 190.975812 59.788541 
L 191.888994 71.172604 
L 193.745798 98.526897 
L 195.541723 122.749566 
L 196.546224 133.029265 
L 197.185451 137.820881 
L 197.7638 140.239181 
L 198.037755 140.63429 
L 198.433467 140.820382 
L 198.585664 140.719166 
L 198.7683 140.335246 
L 199.042255 139.358848 
L 199.559725 136.547275 
L 200.899059 125.758912 
L 201.38609 120.307043 
L 202.542787 102.60068 
L 205.586728 58.973067 
L 206.256395 53.113235 
L 206.712986 50.252147 
L 207.352213 47.732783 
L 207.869683 47.267538 
L 208.234956 47.34104 
L 208.387153 47.616565 
L 208.813305 49.047844 
L 209.269896 51.379819 
L 210.213518 58.626913 
L 210.822306 65.975038 
L 211.857246 80.607423 
L 215.296899 131.551195 
L 215.966566 137.102902 
L 216.423157 139.403651 
L 216.849309 140.432104 
L 217.092824 140.646559 
L 217.427657 140.706624 
L 217.640733 140.716454 
L 218.188643 139.722238 
L 218.432158 138.857988 
L 218.858309 136.486496 
L 219.314901 132.927026 
L 219.954128 126.317332 
L 220.775992 115.326378 
L 221.963129 97.176931 
L 223.576418 73.714294 
L 224.915752 57.416127 
L 225.646297 51.225244 
L 226.102888 48.598954 
L 226.711677 46.445125 
L 227.04651 46.100958 
L 227.198707 46.1072 
L 227.320465 46.275056 
L 227.624859 47.163821 
L 228.020571 49.139945 
L 228.964193 55.47916 
L 229.512102 60.981609 
L 230.455724 72.766497 
L 232.312528 100.765308 
L 233.438786 117.408476 
L 234.686801 131.522968 
L 235.356468 136.420443 
L 235.934817 138.941578 
L 236.239211 139.384707 
L 236.847999 139.846929 
L 237.030636 139.892637 
L 237.213272 139.536961 
L 237.578545 138.012888 
L 238.035136 135.511305 
L 238.522167 131.662764 
L 239.465788 120.561643 
L 240.500728 105.785413 
L 243.48379 61.904805 
L 244.275215 54.577403 
L 245.401473 47.697723 
L 245.858064 46.776169 
L 246.07114 46.562708 
L 246.314655 46.324986 
L 246.55817 46.388454 
L 246.740807 46.670785 
L 246.953883 47.413538 
L 247.410474 50.166808 
L 247.927944 54.51707 
L 248.871565 64.574173 
L 249.936945 77.93202 
L 251.550233 102.67154 
L 252.859128 122.625934 
L 253.680992 132.199651 
L 254.381098 138.475005 
L 254.868129 140.766969 
L 255.32472 142.045893 
L 255.568235 142.259613 
L 255.750871 142.108022 
L 256.177023 141.202377 
L 256.785811 138.234374 
L 257.272842 135.24799 
L 257.851191 130.283225 
L 258.642615 121.057702 
L 259.647116 107.126198 
L 262.417102 65.707889 
L 263.208526 56.705351 
L 264.213027 49.261366 
L 264.974012 47.188125 
L 265.247967 47.232698 
L 265.430603 47.452494 
L 265.826315 48.003257 
L 266.161149 48.853988 
L 266.465543 50.332119 
L 266.922134 54.01073 
L 267.987513 65.49774 
L 268.992014 80.13696 
L 271.335848 116.405737 
L 272.462106 129.813241 
L 273.710122 139.938725 
L 274.136274 142.053518 
L 274.623304 143.339688 
L 275.019016 143.73221 
L 275.140774 143.571356 
L 275.597365 142.2152 
L 276.023517 139.948227 
L 276.601866 135.055952 
L 277.42373 126.108858 
L 278.671745 108.059853 
L 279.798003 89.904452 
L 281.046019 71.421537 
L 282.324474 56.539875 
L 283.024581 50.20713 
L 283.846445 45.630869 
L 284.120399 45.042615 
L 284.242157 45.107601 
L 284.485672 45.525681 
L 285.064021 47.643649 
L 285.429294 49.810228 
L 287.194779 65.101544 
L 287.925325 75.039775 
L 291.151902 121.87788 
L 292.034645 131.430087 
L 293.039146 139.06471 
L 293.373979 140.025765 
L 293.982767 140.810972 
L 294.165404 140.627479 
L 294.530677 139.823109 
L 294.926389 138.442501 
L 295.38298 135.569424 
L 296.052647 130.180319 
L 296.661435 123.392936 
L 297.818133 107.773753 
L 301.288225 59.112724 
L 301.897013 53.903647 
L 302.627559 49.653168 
L 303.205908 47.669472 
L 303.60162 47.076399 
L 303.784257 47.093779 
L 303.997332 47.434042 
L 304.301727 48.448355 
L 304.758318 50.761132 
L 305.15403 53.883207 
L 306.249849 64.986003 
L 307.010834 76.703215 
L 309.202471 110.991853 
L 310.450487 126.874396 
L 311.33323 134.751185 
L 311.82026 137.413306 
L 312.307291 138.917935 
L 312.946518 140.592982 
L 313.129155 140.592693 
L 313.403109 140.350342 
L 313.737943 139.474062 
L 314.133655 137.522179 
L 314.742443 133.355806 
L 315.655626 124.513026 
L 316.690565 112.23044 
L 317.634187 98.465472 
L 319.856264 63.691827 
L 320.58681 55.309665 
L 321.286916 49.156598 
L 321.895704 46.097621 
L 322.565371 44.654924 
L 322.778447 44.700897 
L 322.961083 44.953313 
L 323.417674 46.233812 
L 323.843826 48.164103 
L 324.300417 51.412325 
L 325.000524 58.602956 
L 326.461615 78.669632 
L 329.718632 128.539309 
L 330.570935 137.858056 
L 331.027526 140.684508 
L 331.514557 142.587511 
L 331.818951 143.059306 
L 332.001587 143.041048 
L 332.184224 142.765312 
L 332.671254 141.10626 
L 333.340921 138.194661 
L 334.071467 132.977044 
L 334.649816 127.013822 
L 336.354423 103.649606 
L 338.789575 67.401468 
L 339.885394 55.460729 
L 340.524622 50.817544 
L 341.194289 47.305261 
L 341.62044 46.049385 
L 341.772637 45.969855 
L 342.198789 46.214811 
L 342.503183 46.716609 
L 342.868456 47.938104 
L 343.203289 49.90381 
L 343.69032 54.505753 
L 345.699321 79.706217 
L 347.069094 101.236551 
L 348.225792 119.135297 
L 348.986777 128.877627 
L 349.747762 135.405142 
L 350.508747 139.903047 
L 350.90446 140.886477 
L 351.269732 141.266145 
L 351.452369 141.266605 
L 351.635005 141.086262 
L 351.939399 140.259127 
L 352.42643 137.568904 
L 353.004779 132.683761 
L 353.917961 124.262898 
L 354.404991 118.561303 
L 355.926962 97.031163 
L 357.54025 71.770645 
L 358.60563 59.401283 
L 359.762327 48.995285 
L 360.249358 46.203887 
L 360.553752 45.455821 
L 360.858146 45.307127 
L 360.979903 45.514904 
L 361.375616 46.786029 
L 361.984404 50.173428 
L 362.745389 55.664348 
L 363.506374 63.695112 
L 364.571754 77.840714 
L 366.124163 101.270173 
L 367.372179 120.036425 
L 369.228983 139.525936 
L 369.776892 143.151126 
L 370.111726 144.057492 
L 370.38568 144.216031 
L 370.750953 143.92068 
L 371.055347 142.872512 
L 371.998969 138.970538 
L 372.607757 134.773496 
L 373.186106 131.239992 
L 373.581818 129.719517 
L 373.581818 129.719517 
" clip-path="url(#pb6785e4ee4)" style="fill: none; stroke: #1a2441; stroke-width: 1.5; stroke-linecap: round"/>
   </g>
   <g id="patch_3">
    <path d="M 54 256.32 
L 54 34.56 
" style="fill: none; stroke: #262626; stroke-linejoin: miter; stroke-linecap: square"/>
   </g>
   <g id="patch_4">
    <path d="M 388.8 256.32 
L 388.8 34.56 
" style="fill: none; stroke: #262626; stroke-linejoin: miter; stroke-linecap: square"/>
   </g>
   <g id="patch_5">
    <path d="M 54 256.32 
L 388.8 256.32 
" style="fill: none; stroke: #262626; stroke-linejoin: miter; stroke-linecap: square"/>
   </g>
   <g id="patch_6">
    <path d="M 54 34.56 
L 388.8 34.56 
" style="fill: none; stroke: #262626; stroke-linejoin: miter; stroke-linecap: square"/>
   </g>
  </g>
 </g>
 <defs>
  <clipPath id="pb6785e4ee4">
   <rect x="54" y="34.56" width="334.8" height="221.76"/>
  </clipPath>
 </defs>
</svg>
