<svg class="main-svg" xmlns="http://www.w3.org/2000/svg" xmlns:xlink="http://www.w3.org/1999/xlink" width="700" height="500" style="" viewBox="0 0 700 500"><rect x="0" y="0" width="700" height="500" style="fill: rgb(255, 255, 255); fill-opacity: 1;"/><defs id="defs-faeafb"><g class="clips"><clipPath id="clipfaeafbxyplot" class="plotclip"><rect width="540" height="320"/></clipPath><clipPath class="axesclip" id="clipfaeafbx"><rect x="80" y="0" width="540" height="500"/></clipPath><clipPath class="axesclip" id="clipfaeafby"><rect x="0" y="100" width="700" height="320"/></clipPath><clipPath class="axesclip" id="clipfaeafbxy"><rect x="80" y="100" width="540" height="320"/></clipPath></g><g class="gradients"/><g class="patterns"/></defs><g class="bglayer"/><g class="layer-below"><g class="imagelayer"/><g class="shapelayer"/></g><g class="cartesianlayer"><g class="subplot xy"><g class="layer-subplot"><g class="shapelayer"/><g class="imagelayer"/></g><g class="minor-gridlayer"><g class="x"/><g class="y"/></g><g class="gridlayer"><g class="x"><path class="xgrid crisp" transform="translate(188,0)" d="M0,100v320" style="stroke: rgb(255, 255, 255); stroke-opacity: 1; stroke-width: 1px;"/><path class="xgrid crisp" transform="translate(296,0)" d="M0,100v320" style="stroke: rgb(255, 255, 255); stroke-opacity: 1; stroke-width: 1px;"/><path class="xgrid crisp" transform="translate(404,0)" d="M0,100v320" style="stroke: rgb(255, 255, 255); stroke-opacity: 1; stroke-width: 1px;"/><path class="xgrid crisp" transform="translate(512,0)" d="M0,100v320" style="stroke: rgb(255, 255, 255); stroke-opacity: 1; stroke-width: 1px;"/></g><g class="y"><path class="ygrid crisp" transform="translate(0,411.88)" d="M80,0h540" style="stroke: rgb(255, 255, 255); stroke-opacity: 1; stroke-width: 1px;"/><path class="ygrid crisp" transform="translate(0,374.42)" d="M80,0h540" style="stroke: rgb(255, 255, 255); stroke-opacity: 1; stroke-width: 1px;"/><path class="ygrid crisp" transform="translate(0,299.49)" d="M80,0h540" style="stroke: rgb(255, 255, 255); stroke-opacity: 1; stroke-width: 1px;"/><path class="ygrid crisp" transform="translate(0,262.03)" d="M80,0h540" style="stroke: rgb(255, 255, 255); stroke-opacity: 1; stroke-width: 1px;"/><path class="ygrid crisp" transform="translate(0,224.56)" d="M80,0h540" style="stroke: rgb(255, 255, 255); stroke-opacity: 1; stroke-width: 1px;"/><path class="ygrid crisp" transform="translate(0,187.1)" d="M80,0h540" style="stroke: rgb(255, 255, 255); stroke-opacity: 1; stroke-width: 1px;"/><path class="ygrid crisp" transform="translate(0,149.63)" d="M80,0h540" style="stroke: rgb(255, 255, 255); stroke-opacity: 1; stroke-width: 1px;"/><path class="ygrid crisp" transform="translate(0,112.17)" d="M80,0h540" style="stroke: rgb(255, 255, 255); stroke-opacity: 1; stroke-width: 1px;"/></g></g><g class="zerolinelayer"><path class="yzl zl crisp" transform="translate(0,336.96000000000004)" d="M80,0h540" style="stroke: rgb(255, 255, 255); stroke-opacity: 1; stroke-width: 2px;"/></g><g class="layer-between"><g class="shapelayer"/><g class="imagelayer"/></g><path class="xlines-below"/><path class="ylines-below"/><g class="overlines-below"/><g class="xaxislayer-below"/><g class="yaxislayer-below"/><g class="overaxes-below"/><g class="overplot"><g class="xy" transform="translate(80,100)" clip-path="url(#clipfaeafbxyplot)"><g class="scatterlayer mlayer"><g class="trace scatter trace821b0f" style="stroke-miterlimit: 2; opacity: 1;"><g class="fills"/><g class="errorbars"/><g class="lines"><path class="js-line" d="M0,240.5L3.29,199.84L3.35,199.34L6.48,175.34L6.53,175.1L8.48,170.49L8.53,170.5L9.5,172.16L9.56,172.32L11.4,180.53L11.45,180.9L14.91,211.77L14.96,212.36L22.41,293.74L22.47,294.16L24.25,302.84L24.3,302.95L25.33,303.99L25.49,303.83L25.54,303.75L26.52,300.58L26.57,300.33L28.46,286.76L28.51,286.17L29.92,264.55L29.97,263.47L31.49,221.3L31.54,219.3L35.48,78.62L35.54,77.55L38.07,40.03L38.13,39.42L40.34,21.74L40.4,21.49L42.23,16.12L42.29,16.06L43.1,16.47L43.15,16.57L44.34,21.62L44.39,21.93L46.39,36.14L46.44,36.61L48.66,60.82L48.71,61.45L52.93,112.75L52.98,113.39L55.9,140.39L55.95,140.8L57.95,151.21L58,151.38L59.35,154.08L59.68,153.83L59.73,153.77L60.81,151.93L60.86,151.74L62.48,143.35L62.54,143L65.35,118.04L65.4,117.47L73.99,25.57L74.04,25.31L76.04,19.77L76.09,19.78L76.96,20.57L77.01,20.71L78.85,27.32L78.9,27.54L80.2,34.66L80.25,35.08L82.68,57.84L82.74,58.43L90.35,147.4L90.41,147.72L92.3,154.63L92.35,154.72L93.7,155.79L93.86,155.66L93.92,155.6L95.43,151.21L95.48,150.99L96.72,143.28L96.78,142.89L100.02,109.57L100.07,108.92L107.69,27.55L107.74,27.33L110.44,18.43L110.5,18.38L111.41,18.99L111.47,19.1L112.49,23.53L112.55,23.93L116.98,67.19L117.03,67.83L122.75,132.61L122.81,133.12L125.18,149.95L125.24,150.25L126.75,154.77L126.8,154.79L127.83,154.58L127.88,154.5L129.29,150.41L129.34,150.23L130.64,144.45L130.69,144.09L132.37,129.15L132.42,128.54L136.85,74.18L136.9,73.56L142.36,23.02L142.41,22.81L143.98,20.23L144.03,20.26L144.95,21.99L145,22.11L147.22,29.41L147.27,29.74L149,43.35L149.05,43.9L151.38,72.17L151.43,72.89L158.07,143.86L158.13,144.22L160.23,153.4L160.29,153.55L161.53,155.64L161.75,155.48L161.8,155.42L162.61,152.68L162.66,152.4L164.88,138.13L164.93,137.69L167.52,112.6L167.58,111.97L174.82,29.76L174.87,29.33L176.76,19.76L176.81,19.63L177.84,19.19L177.89,19.2L179.14,20.78L179.19,20.91L180.38,25.96L180.43,26.23L182.48,39.35L182.54,39.8L185.94,77.42L185.99,78.1L192.15,142.42L192.21,142.8L194.15,151.79L194.2,151.85L195.01,152.44L195.28,152.2L195.34,152.12L196.8,148.24L196.85,148.01L199.55,132.81L199.6,132.28L202.47,101.02L202.52,100.33L207.33,42.46L207.38,42.01L210.24,23.2L210.3,22.97L211.86,19.09L211.92,19.06L212.94,19.56L213,19.65L213.97,22.85L214.02,23.12L215.59,33.62L215.64,34.05L217.8,55.39L217.86,55.96L226.34,147.63L226.39,147.91L228.06,153.39L228.12,153.48L229.41,154.5L229.47,154.46L229.52,154.39L230.39,151.82L230.44,151.61L231.85,144.68L231.9,144.33L235.52,113.21L235.57,112.59L239.78,60.52L239.84,59.76L242.27,34.58L242.32,34.09L245.02,18.08L245.08,17.99L246.16,17.55L246.21,17.59L246.26,17.65L247.45,20.53L247.51,20.76L249.77,35.17L249.83,35.62L253.45,74.81L253.5,75.53L259.66,144.19L259.71,144.53L262.63,157.23L262.68,157.32L263.28,157.44L263.49,157.24L263.55,157.19L264.46,154.52L264.52,154.24L267.7,131.64L267.76,131.11L277.8,25.73L277.86,25.51L279.75,20.72L279.8,20.69L280.61,21.48L280.67,21.57L281.53,24.66L281.58,24.92L283.74,37.6L283.8,37.97L286.34,62.28L286.39,62.9L293.84,147.62L293.9,147.96L295.73,155.45L295.79,155.56L297.52,157.23L297.62,157.14L297.68,157.09L298.43,156.16L298.49,155.98L300.11,146.06L300.16,145.62L302.7,120.38L302.75,119.77L305.56,84.15L305.62,83.45L309.88,35L309.94,34.56L312.04,22.44L312.1,22.21L313.77,18.11L313.83,18.07L314.53,17.91L314.74,18.28L314.8,18.4L315.99,22.93L316.04,23.22L318.69,42.17L318.74,42.67L323.17,96.14L323.22,96.87L327.54,141.3L327.6,141.67L330.3,155.89L330.35,155.99L330.95,156.55L331.27,156.16L331.32,156.05L332.84,151.17L332.89,150.87L335.43,131.89L335.48,131.35L338.67,95.98L338.72,95.32L345.26,24.47L345.31,24.25L347.31,18.87L347.36,18.87L348.44,20.37L348.5,20.5L350.23,27.86L350.28,28.22L354.38,65.38L354.44,66.01L360.86,138.8L360.92,139.27L363.08,152.7L363.13,152.85L365.18,156.14L365.24,156.12L365.89,155.38L365.94,155.21L367.34,147.1L367.4,146.73L370.48,119.15L370.53,118.51L374.96,64.24L375.01,63.55L379.01,25.61L379.06,25.28L381.01,18.66L381.06,18.6L381.98,18.51L382.09,18.69L382.14,18.8L383.38,23.19L383.44,23.47L386.03,40.5L386.08,41.05L389.38,79.53L389.43,80.2L395.32,142.09L395.37,142.36L398.34,154.31L398.45,154.24L398.51,154.19L399.96,152.21L400.02,152.04L401.53,143.98L401.58,143.63L403.26,129.49L403.31,128.98L405.96,101.35L406.01,100.67L412.49,31.63L412.55,31.3L414.98,20.56L415.03,20.47L416.33,19.16L416.54,19.45L416.6,19.57L417.89,25.25L417.95,25.52L420.11,41.07L420.16,41.56L422.92,70.61L422.97,71.29L428.69,138.99L428.75,139.47L430.96,153.79L431.02,153.98L432.37,156.1L432.42,156.11L433.23,155.15L433.29,155.02L435.34,146.85L435.39,146.54L437.01,134.25L437.07,133.74L440.95,87.81L441.01,87.06L444.73,42.85L444.79,42.32L447.06,26.36L447.11,26.07L448.78,20.43L448.84,20.33L449.81,19.92L449.92,20.01L449.97,20.08L451.11,23.04L451.16,23.23L452.35,29.42L452.4,29.79L454.73,49.27L454.78,49.81L464.12,147.33L464.18,147.65L465.74,152.66L465.8,152.72L467.15,152.83L467.2,152.75L468.12,150.09L468.17,149.87L469.9,140.73L469.95,140.36L471.79,123.18L471.85,122.62L480.65,28.66L480.7,28.35L482.92,20.28L482.97,20.24L483.94,20.48L484,20.56L485.56,25.1L485.62,25.35L487.83,39.97L487.88,40.45L490.59,69.22L490.64,69.78L497.93,148.68L497.98,148.94L500.31,156.16L500.36,156.22L501.22,155.75L501.28,155.67L502.47,151.96L502.52,151.7L504.73,134.63L504.79,134.11L515.37,23.3L515.43,23.05L516.99,19.04L517.05,19.04L518.29,19.59L518.34,19.68L519.86,24.82L519.91,25.15L522.88,50.85L522.93,51.38L525.36,78.85L525.42,79.51L530.5,137.51L530.55,137.91L533.03,151.92L533.09,152.16L534.55,155.84L534.6,155.87L535.41,155.29L535.46,155.21L536.6,152.15L536.65,151.96L539.78,143.68L539.84,143.68L540,143.78" style="vector-effect: none; fill: none; stroke: rgb(0, 0, 0); stroke-opacity: 1; stroke-width: 2px; opacity: 1;"/></g><g class="points"/><g class="text"/></g></g></g></g><path class="xlines-above crisp" d="M79,420.5H621M79,99.5H621" style="fill: none; stroke-width: 1px; stroke: rgb(0, 0, 0); stroke-opacity: 1;"/><path class="ylines-above crisp" d="M79.5,100V420M620.5,100V420" style="fill: none; stroke-width: 1px; stroke: rgb(0, 0, 0); stroke-opacity: 1;"/><g class="overlines-above"/><g class="xaxislayer-above"><path class="xtick ticks crisp" d="M0,421v5" transform="translate(80,0)" style="stroke: rgb(68, 68, 68); stroke-opacity: 1; stroke-width: 1px;"/><path class="xtick ticks crisp" d="M0,421v5" transform="translate(188,0)" style="stroke: rgb(68, 68, 68); stroke-opacity: 1; stroke-width: 1px;"/><path class="xtick ticks crisp" d="M0,421v5" transform="translate(296,0)" style="stroke: rgb(68, 68, 68); stroke-opacity: 1; stroke-width: 1px;"/><path class="xtick ticks crisp" d="M0,421v5" transform="translate(404,0)" style="stroke: rgb(68, 68, 68); stroke-opacity: 1; stroke-width: 1px;"/><path class="xtick ticks crisp" d="M0,421v5" transform="translate(512,0)" style="stroke: rgb(68, 68, 68); stroke-opacity: 1; stroke-width: 1px;"/><path class="xtick ticks crisp" d="M0,421v5" transform="translate(620,0)" style="stroke: rgb(68, 68, 68); stroke-opacity: 1; stroke-width: 1px;"/><g class="xtick"><text text-anchor="middle" x="0" y="440.4" transform="translate(80,0)" style="font-family: 'Open Sans', verdana, arial, sans-serif; font-size: 12px; fill: rgb(42, 63, 95); fill-opacity: 1; white-space: pre; opacity: 1;">0</text></g><g class="xtick"><text text-anchor="middle" x="0" y="440.4" style="font-family: 'Open Sans', verdana, arial, sans-serif; font-size: 12px; fill: rgb(42, 63, 95); fill-opacity: 1; white-space: pre; opacity: 1;" transform="translate(188,0)">20</text></g><g class="xtick"><text text-anchor="middle" x="0" y="440.4" style="font-family: 'Open Sans', verdana, arial, sans-serif; font-size: 12px; fill: rgb(42, 63, 95); fill-opacity: 1; white-space: pre; opacity: 1;" transform="translate(296,0)">40</text></g><g class="xtick"><text text-anchor="middle" x="0" y="440.4" style="font-family: 'Open Sans', verdana, arial, sans-serif; font-size: 12px; fill: rgb(42, 63, 95); fill-opacity: 1; white-space: pre; opacity: 1;" transform="translate(404,0)">60</text></g><g class="xtick"><text text-anchor="middle" x="0" y="440.4" style="font-family: 'Open Sans', verdana, arial, sans-serif; font-size: 12px; fill: rgb(42, 63, 95); fill-opacity: 1; white-space: pre; opacity: 1;" transform="translate(512,0)">80</text></g><g class="xtick"><text text-anchor="middle" x="0" y="440.4" style="font-family: 'Open Sans', verdana, arial, sans-serif; font-size: 12px; fill: rgb(42, 63, 95); fill-opacity: 1; white-space: pre; opacity: 1;" transform="translate(620,0)">100</text></g></g><g class="yaxislayer-above"><path class="ytick ticks crisp" d="M79,0h-5" transform="translate(0,411.88)" style="stroke: rgb(68, 68, 68); stroke-opacity: 1; stroke-width: 1px;"/><path class="ytick ticks crisp" d="M79,0h-5" transform="translate(0,374.42)" style="stroke: rgb(68, 68, 68); stroke-opacity: 1; stroke-width: 1px;"/><path class="ytick ticks crisp" d="M79,0h-5" transform="translate(0,336.96000000000004)" style="stroke: rgb(68, 68, 68); stroke-opacity: 1; stroke-width: 1px;"/><path class="ytick ticks crisp" d="M79,0h-5" transform="translate(0,299.49)" style="stroke: rgb(68, 68, 68); stroke-opacity: 1; stroke-width: 1px;"/><path class="ytick ticks crisp" d="M79,0h-5" transform="translate(0,262.03)" style="stroke: rgb(68, 68, 68); stroke-opacity: 1; stroke-width: 1px;"/><path class="ytick ticks crisp" d="M79,0h-5" transform="translate(0,224.56)" style="stroke: rgb(68, 68, 68); stroke-opacity: 1; stroke-width: 1px;"/><path class="ytick ticks crisp" d="M79,0h-5" transform="translate(0,187.1)" style="stroke: rgb(68, 68, 68); stroke-opacity: 1; stroke-width: 1px;"/><path class="ytick ticks crisp" d="M79,0h-5" transform="translate(0,149.63)" style="stroke: rgb(68, 68, 68); stroke-opacity: 1; stroke-width: 1px;"/><path class="ytick ticks crisp" d="M79,0h-5" transform="translate(0,112.17)" style="stroke: rgb(68, 68, 68); stroke-opacity: 1; stroke-width: 1px;"/><g class="ytick"><text text-anchor="end" x="71.6" y="4.199999999999999" transform="translate(0,411.88)" style="font-family: 'Open Sans', verdana, arial, sans-serif; font-size: 12px; fill: rgb(42, 63, 95); fill-opacity: 1; white-space: pre; opacity: 1;">−1</text></g><g class="ytick"><text text-anchor="end" x="71.6" y="4.199999999999999" style="font-family: 'Open Sans', verdana, arial, sans-serif; font-size: 12px; fill: rgb(42, 63, 95); fill-opacity: 1; white-space: pre; opacity: 1;" transform="translate(0,374.42)">−0.5</text></g><g class="ytick"><text text-anchor="end" x="71.6" y="4.199999999999999" style="font-family: 'Open Sans', verdana, arial, sans-serif; font-size: 12px; fill: rgb(42, 63, 95); fill-opacity: 1; white-space: pre; opacity: 1;" transform="translate(0,336.96000000000004)">0</text></g><g class="ytick"><text text-anchor="end" x="71.6" y="4.199999999999999" style="font-family: 'Open Sans', verdana, arial, sans-serif; font-size: 12px; fill: rgb(42, 63, 95); fill-opacity: 1; white-space: pre; opacity: 1;" transform="translate(0,299.49)">0.5</text></g><g class="ytick"><text text-anchor="end" x="71.6" y="4.199999999999999" style="font-family: 'Open Sans', verdana, arial, sans-serif; font-size: 12px; fill: rgb(42, 63, 95); fill-opacity: 1; white-space: pre; opacity: 1;" transform="translate(0,262.03)">1</text></g><g class="ytick"><text text-anchor="end" x="71.6" y="4.199999999999999" style="font-family: 'Open Sans', verdana, arial, sans-serif; font-size: 12px; fill: rgb(42, 63, 95); fill-opacity: 1; white-space: pre; opacity: 1;" transform="translate(0,224.56)">1.5</text></g><g class="ytick"><text text-anchor="end" x="71.6" y="4.199999999999999" style="font-family: 'Open Sans', verdana, arial, sans-serif; font-size: 12px; fill: rgb(42, 63, 95); fill-opacity: 1; white-space: pre; opacity: 1;" transform="translate(0,187.1)">2</text></g><g class="ytick"><text text-anchor="end" x="71.6" y="4.199999999999999" style="font-family: 'Open Sans', verdana, arial, sans-serif; font-size: 12px; fill: rgb(42, 63, 95); fill-opacity: 1; white-space: pre; opacity: 1;" transform="translate(0,149.63)">2.5</text></g><g class="ytick"><text text-anchor="end" x="71.6" y="4.199999999999999" style="font-family: 'Open Sans', verdana, arial, sans-serif; font-size: 12px; fill: rgb(42, 63, 95); fill-opacity: 1; white-space: pre; opacity: 1;" transform="translate(0,112.17)">3</text></g></g><g class="overaxes-above"/></g></g><g class="polarlayer"/><g class="smithlayer"/><g class="ternarylayer"/><g class="geolayer"/><g class="funnelarealayer"/><g class="pielayer"/><g class="iciclelayer"/><g class="treemaplayer"/><g class="sunburstlayer"/><g class="glimages"/><defs id="topdefs-faeafb"><g class="clips"/></defs><g class="layer-above"><g class="imagelayer"/><g class="shapelayer"/></g><g class="infolayer"><g class="g-gtitle"/><g class="g-xtitle"/><g class="g-ytitle"/></g></svg>